<svg width="80" height="70" viewBox="0 0 80 70" fill="none" xmlns="http://www.w3.org/2000/svg">
<g clip-path="url(#clip0)">
<path d="M65.3519 50.4793C66.3417 47.2614 67.0406 43.9825 67.4411 40.6783C67.4584 40.5705 67.4743 40.4622 67.4913 40.3527C67.5432 40.3276 67.597 40.3023 67.6494 40.2752C68.4264 39.8474 69.0983 39.2651 69.6151 38.5715C70.132 37.8779 70.4804 37.0909 70.6345 36.2691C71.107 34.237 71.3445 32.1727 71.3428 30.1126C71.4054 29.094 71.1544 28.0933 70.6198 27.23C70.0851 26.3667 69.2895 25.6773 68.3279 25.2442C68.2692 25.2183 68.2114 25.1928 68.1535 25.1707C68.1923 24.862 68.2103 24.5521 68.2074 24.2431C68.2328 22.7714 67.8222 21.3403 67.0213 20.1089C66.2204 18.8776 65.0606 17.8942 63.6708 17.2681C62.5845 16.8004 61.4073 16.5269 60.1969 16.4609C59.4629 16.3401 57.3944 16.0054 54.4951 15.6237C53.1338 14.3495 51.5796 13.269 49.8782 12.4137C49.1733 12.0969 48.4422 11.8303 47.6906 11.6163C47.1759 11.4186 46.6325 11.2868 46.0745 11.2242C45.373 11.1114 44.6483 11.1311 43.9423 11.2822C43.8293 11.2976 43.7107 11.316 43.5749 11.3392L43.2998 11.3901C43.1353 11.4235 42.971 11.4608 42.8225 11.4979C42.7146 11.5233 42.6057 11.5517 42.5082 11.5794C42.3414 11.6257 42.1717 11.6785 41.9927 11.7367C41.8879 11.7724 41.7811 11.8056 41.6996 11.8371C41.5314 11.8978 41.3608 11.9663 41.1659 12.0476C41.072 12.087 40.9797 12.1255 40.882 12.1699C40.7188 12.2428 40.5561 12.3238 40.3778 12.414C40.2792 12.4642 40.1812 12.5135 40.0971 12.5595C39.9331 12.6482 39.766 12.7479 39.5966 12.8498C39.5041 12.9038 39.4117 12.9589 39.3187 13.0193C39.1632 13.118 39.0053 13.2278 38.8215 13.3574C38.7385 13.4144 38.6549 13.4723 38.5623 13.5407C38.3937 13.6659 38.2233 13.8031 38.0737 13.9244C37.9982 13.9848 37.9218 14.0458 37.8395 14.1143L37.8149 14.1374C35.367 14.0395 32.89 14.0046 30.4793 14.0624C30.134 14.0675 29.7884 14.0958 29.4452 14.147C29.5891 13.8298 29.702 13.5022 29.7825 13.1683C29.8697 12.7908 29.9006 12.4062 29.8742 12.0255C29.8765 11.0516 29.5934 10.1078 29.0558 9.29705C28.5181 8.48626 27.7465 7.83955 26.825 7.42739C26.7597 7.39859 26.6313 7.34534 26.566 7.31986C25.8089 7.03125 24.9856 6.90568 24.1548 6.95213C23.324 6.99857 22.5061 7.21588 21.7593 7.58856C21.1871 7.80992 20.6655 8.13977 20.2287 8.55664C19.3602 9.38592 18.7834 10.4411 18.5818 11.5695C18.2851 12.1554 18.109 12.7843 18.0633 13.4219C17.8941 14.0063 17.8628 14.6127 17.9719 15.198C18.0809 15.7832 18.3275 16.3328 18.6941 16.8077C18.6743 16.9821 18.6632 17.1591 18.6607 17.3386C18.6531 17.4495 18.6559 17.5604 18.669 17.67L18.5749 20.7377C18.5339 21.4352 18.4847 21.9759 18.4376 22.3887C17.5205 23.4075 17.0508 24.7054 17.1295 26.0031C17.2081 27.3009 17.8288 28.4949 18.8581 29.3283C18.9313 29.389 19.0059 29.4492 19.0838 29.5042C19.2731 29.8739 19.4964 30.2264 19.7511 30.558C19.9916 30.8668 20.2807 31.1389 20.6091 31.3655C20.6908 31.4461 20.7729 31.5302 20.8497 31.5992L19.3312 44.3014C19.1593 45.445 18.984 46.6005 18.7946 47.7615C18.5907 48.6685 18.5608 49.5953 18.7064 50.4975C18.8184 51.41 19.1586 52.2754 19.6996 53.0242C20.4653 54.1648 21.5679 55.0656 22.8814 55.6238C23.4017 55.8506 23.944 56.0337 24.5022 56.1713C25.297 56.3629 44.054 60.8153 57.2677 58.454C58.6598 58.243 59.9944 57.7305 61.164 56.9578C62.3336 56.185 63.3057 55.1736 64.0019 54.0049C64.8033 52.9628 65.2725 51.7374 65.3519 50.4793V50.4793ZM67.7632 28.5186C67.6953 28.7073 67.6127 28.8917 67.5164 29.0702C67.6124 28.8915 67.6949 28.7072 67.7632 28.5186V28.5186Z" fill="#09090D"/>
<path d="M64.4234 25.4533C64.2906 25.4547 64.1577 25.464 64.0257 25.4812C64.45 25.5571 66.3456 25.8025 66.7376 25.9303C66.7376 25.9303 67.858 26.0267 67.7455 27.3854C67.7127 29.2073 67.4815 31.0244 67.0561 32.8048C67.0561 32.8048 66.7382 34.4052 65.7716 33.9105C64.9594 33.8163 64.1545 33.6742 63.3611 33.4849L64.4249 25.4547" fill="#FFAD00"/>
<path d="M64.2927 27.9062C64.5116 27.811 64.7182 27.6877 64.9074 27.5394C65.0074 27.4763 65.1162 27.4178 65.2188 27.3561C65.3215 27.2944 65.4215 27.2314 65.5259 27.1706C65.735 27.0425 65.9635 26.9518 66.2011 26.9024C66.3248 26.8799 66.4512 26.8884 66.5692 26.9272C66.6906 26.9673 66.7959 27.0444 66.8712 27.1481C66.9463 27.2558 66.9806 27.388 66.9679 27.5214C66.9586 27.6479 66.9274 27.7725 66.8757 27.8892C66.7758 28.1174 66.6409 28.3287 66.4761 28.5152C66.4363 28.5619 66.391 28.6075 66.3477 28.6523C66.302 28.6997 66.2502 28.7406 66.1939 28.7738C66.081 28.8413 65.954 28.8793 65.8245 28.8841C65.6985 28.8971 65.5719 28.8927 65.448 28.8711C65.4326 28.863 65.4157 28.86 65.3976 28.8551C65.3906 28.8514 65.3914 28.8519 65.3813 28.8466L65.3721 28.8418L65.3414 28.8257C65.3105 28.8015 65.2842 28.7717 65.2639 28.7378C65.2275 28.6753 65.2059 28.6047 65.2007 28.5316C65.1937 28.459 65.2043 28.3853 65.2317 28.3169C65.2394 28.2972 65.2502 28.2789 65.2637 28.2627C65.2687 28.252 65.2757 28.2423 65.2843 28.2342L65.2898 28.2238L65.303 28.2094C65.3348 28.1837 65.3704 28.1633 65.4083 28.1491C65.4735 28.1255 65.532 28.1122 65.5862 28.0945C65.6405 28.0767 65.7052 28.0644 65.7635 28.0476C66.0035 27.9817 66.2523 27.9616 66.4971 27.9883C66.7549 28.0135 66.9954 28.1232 67.1824 28.3008C67.2323 28.3569 67.268 28.4247 67.2865 28.4985C67.3017 28.5683 67.3054 28.6404 67.2976 28.7121C67.2884 28.7801 67.2718 28.8471 67.2482 28.9119C67.2375 28.9427 67.2235 28.9734 67.2107 29.0019L67.1721 29.0856C67.0739 29.3159 66.9471 29.5331 66.7949 29.732C66.7127 29.8364 66.6132 29.9256 66.5011 29.9955C66.4439 30.0319 66.383 30.0618 66.3195 30.0845C66.2589 30.1059 66.2034 30.1219 66.1416 30.1392C66.0211 30.1735 65.8981 30.1968 65.7741 30.2088C65.6436 30.2276 65.5115 30.2192 65.3859 30.184C65.3073 30.1618 65.2386 30.1143 65.19 30.0485C65.143 29.9785 65.1222 29.8932 65.1311 29.8076C65.1349 29.7723 65.1417 29.7372 65.1517 29.7029L65.1559 29.678L65.1612 29.6594L65.1667 29.649C65.1733 29.6298 65.1817 29.6112 65.1916 29.5934C65.2329 29.5243 65.2909 29.4667 65.3599 29.4264C65.48 29.3631 65.6107 29.3245 65.7443 29.3131C65.8658 29.2997 65.9878 29.2937 66.1096 29.2953C66.2358 29.2918 66.3615 29.303 66.4843 29.3287C66.6172 29.3565 66.7396 29.4194 66.8393 29.5111C66.9365 29.6075 67.0049 29.7299 67.0369 29.865C67.0724 29.9927 67.0812 30.1272 67.0626 30.26C67.0451 30.3955 66.9966 30.5259 66.921 30.6407C66.8478 30.7464 66.7641 30.8444 66.6714 30.933C66.4891 31.112 66.2737 31.2523 66.0384 31.3451C65.9176 31.3931 65.7906 31.4215 65.6621 31.4292C65.4078 31.4415 65.1568 31.3829 64.9367 31.2596C64.8207 31.198 64.7215 31.1089 64.6474 30.9996C64.6105 30.9433 64.5826 30.8812 64.5647 30.8155C64.5532 30.7824 64.5452 30.748 64.5409 30.713C64.5364 30.6698 64.5405 30.6258 64.5531 30.5838C64.564 30.5573 64.5795 30.5329 64.5989 30.5119C64.6031 30.5084 64.6074 30.5051 64.612 30.502L64.6188 30.4998L64.6337 30.4863C64.6446 30.4795 64.6563 30.4741 64.6685 30.4704C64.7037 30.4581 64.7403 30.4502 64.7772 30.4471C64.8435 30.4437 64.9048 30.4464 64.9609 30.4463L65.0022 30.4466C65.0121 30.4471 65.0289 30.4438 65.041 30.4432L65.1316 30.433C65.1906 30.4275 65.2515 30.4236 65.313 30.4217C65.4336 30.4166 65.5542 30.419 65.6741 30.4289C65.7979 30.4371 65.9198 30.4608 66.0371 30.4994C66.0977 30.5198 66.1558 30.5468 66.2105 30.5798C66.2382 30.5963 66.2644 30.6153 66.2888 30.6364L66.3248 30.6679C66.3365 30.6787 66.3477 30.6914 66.3583 30.7022C66.4448 30.7956 66.5102 30.9072 66.5503 31.0295C66.5721 31.0958 66.5778 31.1669 66.567 31.2368C66.5522 31.3041 66.5237 31.3678 66.4833 31.4239C66.4463 31.4742 66.4063 31.5223 66.3636 31.5678C66.3256 31.6132 66.2874 31.6601 66.2521 31.7068C66.1793 31.808 66.0971 31.9018 66.0066 31.987C65.909 32.0762 65.7849 32.1293 65.6554 32.1373C65.5291 32.1376 65.4152 32.1357 65.2956 32.1297C65.1747 32.1258 65.0551 32.1071 64.9393 32.0741C64.8228 32.0396 64.7148 31.9819 64.6215 31.9043C64.5328 31.8259 64.4519 31.7389 64.3798 31.6445C64.3037 31.5554 64.2202 31.4731 64.1302 31.3984L63.9973 31.285C63.9533 31.2463 63.9148 31.2002 63.871 31.1611C63.8296 31.1207 63.7784 31.0919 63.7223 31.0775C63.6644 31.0738 63.6068 31.0666 63.5499 31.056C63.6073 31.065 63.6655 31.0695 63.7239 31.0692C63.7833 31.0805 63.8381 31.108 63.8826 31.1487C63.928 31.1869 63.969 31.2303 64.0136 31.2658L64.1519 31.3734C64.2466 31.4447 64.3345 31.5247 64.4146 31.6125C64.4883 31.7019 64.57 31.7843 64.6586 31.8585C64.846 31.99 65.0715 32.0563 65.3024 32.0478C65.4163 32.0497 65.5396 32.0467 65.6526 32.0406C65.7601 32.0319 65.8619 31.9842 65.9394 31.9062C66.0231 31.8246 66.0985 31.7347 66.1646 31.638C66.2339 31.5375 66.3238 31.4425 66.3865 31.3547C66.418 31.3145 66.4389 31.2669 66.4469 31.2166C66.455 31.1663 66.4499 31.1152 66.4324 31.0682C66.3961 30.9649 66.3384 30.8712 66.2631 30.7932C66.0996 30.6471 65.8867 30.5695 65.6658 30.5752C65.5501 30.5692 65.4339 30.5695 65.3179 30.576C65.2608 30.5779 65.2026 30.582 65.1431 30.5885L65.0596 30.599C65.0413 30.6009 65.0284 30.604 65.0092 30.6055C64.9928 30.605 64.9765 30.6055 64.9602 30.6069C64.8996 30.607 64.8408 30.6068 64.7902 30.6103C64.7686 30.6122 64.7473 30.6169 64.7267 30.6244C64.7088 30.6318 64.7218 30.6253 64.7147 30.6302C64.7117 30.6716 64.7176 30.7129 64.732 30.7513C64.7463 30.8006 64.7678 30.8472 64.7957 30.8897C64.8576 30.9742 64.9376 31.0431 65.03 31.0914C65.1257 31.1432 65.2281 31.1817 65.3345 31.2058C65.44 31.2296 65.5486 31.2383 65.6572 31.2315C65.7662 31.2228 65.8739 31.1978 65.9766 31.1575C66.185 31.0713 66.3756 30.9445 66.5374 30.7844C66.6172 30.704 66.6901 30.6168 66.7552 30.5238C66.8105 30.4353 66.8471 30.3364 66.8624 30.2337C66.877 30.1279 66.8693 30.0208 66.84 29.9195C66.817 29.821 66.7669 29.7318 66.6956 29.6621C66.5269 29.5378 66.3177 29.4812 66.107 29.5029C65.9925 29.5037 65.8778 29.5104 65.7636 29.5228C65.6606 29.5308 65.5596 29.5596 65.4666 29.6075C65.43 29.6263 65.3992 29.6552 65.3778 29.6909C65.3601 29.7314 65.3492 29.7745 65.3457 29.8184C65.3393 29.8551 65.3472 29.8925 65.3677 29.9226C65.3883 29.9527 65.4198 29.9733 65.4556 29.9798C65.5564 30.0046 65.6612 30.0106 65.7652 29.9975C65.8772 29.9842 65.9885 29.963 66.098 29.934C66.1531 29.9189 66.2072 29.9034 66.2595 29.884C66.3099 29.8678 66.3582 29.8449 66.403 29.816C66.4943 29.7584 66.5753 29.6851 66.6423 29.5996C66.784 29.4149 66.9029 29.2137 66.9962 29.0005L67.0352 28.9181C67.0484 28.8933 67.0565 28.8715 67.0686 28.8444C67.0852 28.7942 67.0977 28.7429 67.1059 28.6908C67.1149 28.6457 67.114 28.5993 67.1035 28.5551C67.093 28.5108 67.0731 28.4696 67.0451 28.4345C67.028 28.4165 67.0097 28.3998 66.9903 28.3844C66.9699 28.3676 66.9485 28.3521 66.9264 28.3377C66.8821 28.3077 66.8351 28.2819 66.786 28.2607C66.6865 28.2162 66.5809 28.1864 66.4723 28.1722C66.2496 28.1471 66.0231 28.1643 65.8042 28.223C65.7453 28.2348 65.69 28.2504 65.6337 28.2636C65.5774 28.2768 65.5134 28.2918 65.4702 28.3079C65.4518 28.3122 65.4345 28.321 65.4199 28.3334C65.4053 28.3459 65.3938 28.3617 65.3864 28.3794C65.3687 28.4228 65.3613 28.4696 65.3648 28.5159C65.3671 28.5635 65.3799 28.6096 65.4023 28.6509C65.4117 28.6677 65.4244 28.6823 65.4395 28.6941C65.4456 28.6973 65.443 28.6959 65.4483 28.6987L65.457 28.7033L65.4623 28.706C65.4726 28.7109 65.4837 28.7144 65.495 28.7162C65.6022 28.7377 65.7123 28.7437 65.822 28.7339C65.9295 28.7326 66.0357 28.7041 66.131 28.6509C66.2251 28.5888 66.3104 28.5138 66.3843 28.428C66.5433 28.2551 66.6741 28.0579 66.7717 27.844C66.8202 27.7409 66.8506 27.6305 66.8617 27.5177C66.8744 27.4096 66.8493 27.3015 66.7909 27.2123C66.7302 27.1223 66.6437 27.0539 66.5425 27.0159C66.4382 26.9789 66.3259 26.9681 66.2151 26.9842C65.9852 27.0238 65.7629 27.1042 65.5584 27.2216C65.4519 27.2779 65.35 27.3382 65.2454 27.3972C65.1408 27.4561 65.0323 27.5078 64.9274 27.5672C64.8231 27.6235 64.7221 27.6863 64.6252 27.7553C64.5242 27.8263 64.4114 27.8775 64.2927 27.9062V27.9062Z" fill="white"/>
<path d="M65.3033 25.7702C65.4773 25.7575 65.6516 25.7619 65.8238 25.7834C65.9958 25.8032 66.1646 25.8415 66.3273 25.8975C66.6614 26.0055 66.9533 26.2093 67.1667 26.4835C67.373 26.7632 67.4979 27.0946 67.5282 27.4431C67.548 27.6144 67.5528 27.7875 67.5424 27.9604C67.5299 28.1385 67.5056 28.3066 67.4851 28.4783C67.4013 29.1603 67.3147 29.8473 67.2064 30.5282C67.153 30.8682 67.096 31.2087 67.0295 31.5477C66.9955 31.716 66.9599 31.8874 66.9256 32.0562C66.8893 32.2248 66.8409 32.3909 66.7805 32.5533C66.8327 32.389 66.8754 32.2222 66.9082 32.0536C66.9422 31.8853 66.9715 31.714 66.9988 31.5446C67.0558 31.2042 67.106 30.8625 67.1533 30.5211C67.2479 29.8372 67.3354 29.1559 67.4171 28.4716C67.4371 28.3008 67.4624 28.1263 67.476 27.959C67.4863 27.7891 67.483 27.619 67.4663 27.4503C67.436 27.1125 67.3185 26.7904 67.1248 26.5147C66.9191 26.2455 66.638 26.0425 66.3149 25.93C65.9926 25.8137 65.6494 25.7595 65.3033 25.7702V25.7702Z" fill="white"/>
<path d="M31.4695 17.1697C31.4695 17.1697 27.6846 17.021 27.2277 21.7123C27.2277 21.7123 26.0269 34.2063 23.7082 47.1126C23.7082 47.1126 22.7287 50.0307 26.2952 51.053C26.2952 51.053 44.5261 56.0387 56.7725 54.1096C56.7725 54.1096 60.233 53.8796 61.019 49.8277C63.5 41.5357 64.6816 32.9794 64.5252 24.439C64.5252 24.439 64.6912 20.6785 60.173 20.381C60.173 20.381 44.5924 17.2058 31.4695 17.1697Z" fill="#A579F2"/>
<path opacity="0.25" d="M63.0868 18.1149L62.9705 18.288L58.5779 52.2581C58.5779 52.2581 62.4388 51.317 62.2376 48.4283C63.2882 44.8865 64.0038 41.2486 64.3727 37.5733C64.8687 32.5867 65.1352 27.5854 65.1712 22.5885C65.1712 22.5885 65.564 19.2987 63.0868 18.1149Z" fill="white"/>
<path opacity="0.25" d="M29.508 18.6351L29.581 18.8302L26.6662 54.1061C26.6662 54.1061 22.0616 53.1559 22.9826 50.3995L26.3505 22.5197C26.3505 22.5197 26.7853 19.2479 29.508 18.6351Z" fill="black"/>
<path d="M26.997 19.8041L27.2161 19.8479L27.118 20.3774L26.8922 20.3389L26.9951 19.8118" fill="#858585"/>
<path d="M27.0168 19.7876C26.9523 19.7982 26.8904 19.8236 26.8357 19.862C26.781 19.9003 26.7351 19.9505 26.7012 20.0088C26.6811 20.0507 26.6705 20.0964 26.6702 20.1423C26.6698 20.1882 26.6798 20.2332 26.6992 20.2737C26.7187 20.3142 26.7472 20.3492 26.7825 20.376C26.8178 20.4028 26.8589 20.4206 26.9027 20.4281C26.912 20.4311 26.921 20.4347 26.9298 20.4388L27.0168 19.7876Z" fill="#858585"/>
<path d="M27.2342 19.7724C27.2205 19.7666 27.2064 19.7619 27.192 19.7582L27.0819 20.4185C27.1447 20.4183 27.2068 20.3989 27.2606 20.3628C27.3144 20.3268 27.3574 20.2755 27.3843 20.2155C27.4218 20.1336 27.427 20.041 27.3989 19.9579C27.3708 19.8748 27.3115 19.8081 27.2342 19.7724V19.7724Z" fill="#858585"/>
<path d="M26.9965 19.804L27.2159 19.8482L27.1185 20.3775L26.8925 20.3385L26.9947 19.8118" fill="#BABAB9"/>
<path d="M27.1309 19.8176L27.0287 20.3582L27.1059 20.372L27.1756 19.826L27.1309 19.8176Z" fill="#A1A0A0"/>
<path d="M27.0204 19.7839C26.9643 19.7908 26.9104 19.8129 26.8642 19.8481C26.818 19.8833 26.7812 19.9302 26.7575 19.9841C26.7389 20.0246 26.7281 20.0682 26.7256 20.1124C26.7232 20.1566 26.7292 20.2006 26.7432 20.2418C26.7573 20.2829 26.7792 20.3205 26.8076 20.3523C26.836 20.3842 26.8705 20.4096 26.9089 20.4272C26.9167 20.4313 26.9249 20.4357 26.9358 20.438L27.0204 19.7839Z" fill="#D4CED4"/>
<path d="M27.2337 19.7725C27.22 19.7667 27.2059 19.762 27.1915 19.7582L27.0823 20.4181C27.1451 20.418 27.2073 20.3988 27.261 20.3629C27.3148 20.327 27.3578 20.2759 27.3847 20.216C27.422 20.1342 27.4271 20.0416 27.3988 19.9584C27.3705 19.8753 27.3112 19.8084 27.2337 19.7725V19.7725Z" fill="#D4CED4"/>
<path d="M60.8291 20.1972L61.0473 20.2417L60.9492 20.7713L60.7249 20.7342L60.8251 20.2091" fill="#858585"/>
<path d="M60.849 20.1771C60.7847 20.1884 60.7232 20.2142 60.6688 20.2525C60.6144 20.2909 60.5685 20.3409 60.5344 20.3988C60.5139 20.4406 60.5028 20.4863 60.5022 20.5323C60.5015 20.5783 60.5112 20.6234 60.5305 20.664C60.5499 20.7047 60.5783 20.7398 60.6136 20.7666C60.6489 20.7934 60.6901 20.8111 60.734 20.8185C60.7427 20.8226 60.7518 20.8261 60.761 20.8291L60.849 20.1771Z" fill="#858585"/>
<path d="M61.0668 20.1662C61.0537 20.1594 61.0399 20.154 61.0256 20.1503L60.9137 20.8098C60.9767 20.8104 61.0391 20.7914 61.0931 20.7552C61.147 20.719 61.1898 20.6672 61.2161 20.6067C61.2348 20.5664 61.2458 20.523 61.2484 20.479C61.251 20.435 61.2452 20.3912 61.2313 20.3503C61.2174 20.3093 61.1957 20.272 61.1675 20.2404C61.1393 20.2088 61.105 20.1836 61.0668 20.1662V20.1662Z" fill="#858585"/>
<path d="M60.8287 20.1972L61.0471 20.242L60.9496 20.7714L60.7252 20.7338L60.8247 20.209" fill="#BABAB9"/>
<path d="M60.9627 20.2066L60.86 20.7482L60.9367 20.7617L61.0055 20.2169L60.9627 20.2066Z" fill="#A1A0A0"/>
<path d="M60.8529 20.1736C60.7971 20.1817 60.7437 20.2043 60.6978 20.2394C60.6518 20.2744 60.6148 20.3207 60.5901 20.374C60.5527 20.4557 60.5474 20.5483 60.5755 20.6315C60.6037 20.7147 60.6628 20.7816 60.7401 20.8176C60.7486 20.8222 60.7576 20.8258 60.7669 20.8284L60.8529 20.1736Z" fill="#D4CED4"/>
<path d="M61.0658 20.1661C61.0527 20.1592 61.0388 20.1538 61.0245 20.1501L60.9136 20.8091C60.9766 20.8099 61.0391 20.7911 61.093 20.755C61.1469 20.719 61.1897 20.6674 61.2159 20.6069C61.2345 20.5667 61.2455 20.5233 61.248 20.4793C61.2505 20.4353 61.2447 20.3916 61.2307 20.3506C61.2167 20.3096 61.195 20.2722 61.1667 20.2405C61.1384 20.2089 61.1041 20.1836 61.0658 20.1661V20.1661Z" fill="#D4CED4"/>
<path d="M27.6207 36.2652L27.8368 36.3103L27.7388 36.8401L27.5136 36.8029L27.615 36.275" fill="#858585"/>
<path d="M27.6381 36.25C27.5737 36.2602 27.5119 36.2852 27.4572 36.3231C27.4025 36.361 27.3564 36.4108 27.3224 36.4688C27.3022 36.5108 27.2916 36.5566 27.2913 36.6026C27.2909 36.6487 27.3009 36.6938 27.3204 36.7344C27.3399 36.775 27.3684 36.8101 27.4038 36.837C27.4392 36.8639 27.4805 36.8818 27.5244 36.8893C27.5338 36.8921 27.543 36.8953 27.552 36.8991L27.6381 36.25Z" fill="#858585"/>
<path d="M27.8578 36.2319C27.8445 36.2262 27.8309 36.2214 27.817 36.2173L27.7043 36.8786C27.7787 36.8781 27.8519 36.8511 27.9114 36.802C27.9709 36.7529 28.0132 36.6847 28.0312 36.609C28.0492 36.5332 28.0418 36.4544 28.0102 36.3857C27.9786 36.3171 27.9248 36.2628 27.8578 36.2319V36.2319Z" fill="#858585"/>
<path d="M27.6203 36.2649L27.8366 36.3105L27.7393 36.8399L27.5138 36.8023L27.6146 36.2747" fill="#BABAB9"/>
<path d="M27.7522 36.2785L27.6517 36.8213L27.7271 36.8341L27.798 36.2881L27.7522 36.2785Z" fill="#A1A0A0"/>
<path d="M27.6417 36.246C27.5861 36.2529 27.5327 36.2747 27.4868 36.3094C27.4409 36.344 27.4042 36.3902 27.3802 36.4434C27.3613 36.4839 27.3502 36.5276 27.3476 36.572C27.3449 36.6164 27.3508 36.6605 27.3648 36.7019C27.3788 36.7433 27.4007 36.7811 27.4291 36.813C27.4576 36.845 27.4922 36.8706 27.5307 36.8883C27.54 36.891 27.5492 36.8943 27.5581 36.8981L27.6417 36.246Z" fill="#D4CED4"/>
<path d="M27.8573 36.2317C27.8439 36.2261 27.8303 36.2212 27.8164 36.2171L27.7046 36.878C27.7792 36.8777 27.8523 36.8508 27.9118 36.8019C27.9713 36.753 28.0136 36.685 28.0314 36.6093C28.0493 36.5336 28.0418 36.4547 28.0101 36.386C27.9784 36.3173 27.9244 36.2628 27.8573 36.2317V36.2317Z" fill="#D4CED4"/>
<path d="M28.7874 51.6731L29.0052 51.7168L28.9054 52.2458L28.6812 52.2091L28.7831 51.6813" fill="#858585"/>
<path d="M28.805 51.6559C28.7406 51.6668 28.6788 51.6925 28.6244 51.7312C28.57 51.7699 28.5244 51.8205 28.491 51.8791C28.4712 51.921 28.4607 51.9666 28.4604 52.0124C28.4601 52.0583 28.47 52.1031 28.4892 52.1436C28.5085 52.1841 28.5367 52.2192 28.5716 52.2461C28.6066 52.2731 28.6474 52.2912 28.6909 52.2991C28.7015 52.3 28.7094 52.303 28.7177 52.3039L28.805 51.6559Z" fill="#858585"/>
<path d="M29.0235 51.6444C29.0109 51.6358 28.9968 51.6299 28.9819 51.6271L28.8705 52.2896C28.9332 52.2884 28.995 52.2688 29.0487 52.2329C29.1025 52.197 29.1459 52.1464 29.1738 52.0871C29.1927 52.0466 29.2038 52.0029 29.2065 51.9587C29.2091 51.9144 29.2033 51.8704 29.1893 51.8292C29.1753 51.788 29.1534 51.7505 29.125 51.7188C29.0965 51.687 29.062 51.6618 29.0235 51.6444Z" fill="#858585"/>
<path d="M28.787 51.673L29.005 51.7172L28.9059 52.2458L28.6814 52.2087L28.7827 51.6812" fill="#BABAB9"/>
<path d="M28.9184 51.6854L28.8182 52.2272L28.8945 52.2404L28.9647 51.6929L28.9184 51.6854Z" fill="#A1A0A0"/>
<path d="M28.8075 51.6524C28.7372 51.6622 28.6711 51.6956 28.6191 51.7474C28.5671 51.7991 28.5321 51.8665 28.5193 51.9393C28.5065 52.0121 28.5166 52.0864 28.5482 52.1509C28.5798 52.2154 28.6311 52.2667 28.6943 52.2971C28.7035 52.2984 28.7126 52.301 28.7209 52.3019L28.8075 51.6524Z" fill="#D4CED4"/>
<path d="M29.023 51.6445C29.0104 51.6359 28.9962 51.63 28.9813 51.6271L28.8708 52.2892C28.9336 52.2882 28.9954 52.2687 29.0491 52.233C29.1029 52.1973 29.1462 52.1468 29.1741 52.0875C29.193 52.0471 29.204 52.0035 29.2066 51.9592C29.2092 51.915 29.2033 51.871 29.1892 51.8297C29.1751 51.7885 29.1532 51.7509 29.1247 51.7191C29.0961 51.6873 29.0616 51.662 29.023 51.6445Z" fill="#D4CED4"/>
<path d="M61.4831 36.0558L61.6993 36.0999L61.603 36.6262L61.3767 36.5897L61.4765 36.0652" fill="#858585"/>
<path d="M61.4998 36.0389C61.4356 36.0501 61.374 36.0756 61.3195 36.1137C61.2651 36.1518 61.219 36.2014 61.1846 36.2591C61.1644 36.301 61.1538 36.3467 61.1534 36.3927C61.153 36.4387 61.1628 36.4837 61.1823 36.5243C61.2017 36.5649 61.2302 36.6 61.2654 36.6268C61.3007 36.6537 61.3418 36.6717 61.3857 36.6793C61.3951 36.6819 61.4041 36.6855 61.4127 36.6899L61.4998 36.0389Z" fill="#858585"/>
<path d="M61.7176 36.0215C61.7037 36.0177 61.6898 36.0127 61.6763 36.0079L61.5662 36.6705C61.6406 36.6693 61.7135 36.6417 61.7727 36.5922C61.8319 36.5428 61.8738 36.4745 61.8914 36.3987C61.9091 36.3229 61.9015 36.2442 61.8698 36.1757C61.8381 36.1071 61.7844 36.0529 61.7174 36.022L61.7176 36.0215Z" fill="#858585"/>
<path d="M61.4827 36.0555L61.6991 36.1L61.6034 36.626L61.3769 36.5891L61.4761 36.0649" fill="#BABAB9"/>
<path d="M61.6149 36.0659L61.5124 36.6076L61.5897 36.6197L61.6596 36.0755L61.6149 36.0659Z" fill="#A1A0A0"/>
<path d="M61.5018 36.034C61.4321 36.0443 61.3666 36.0777 61.3152 36.1292C61.2638 36.1807 61.2293 36.2476 61.2167 36.3197C61.2042 36.3919 61.2143 36.4655 61.2457 36.5295C61.277 36.5935 61.3278 36.6444 61.3904 36.6747C61.3991 36.6793 61.4096 36.6814 61.4173 36.6855L61.5018 36.034Z" fill="#D4CED4"/>
<path d="M61.7176 36.0216C61.7036 36.0177 61.6897 36.0127 61.6762 36.0079L61.5671 36.6701C61.6416 36.6691 61.7145 36.6417 61.7737 36.5924C61.8328 36.5431 61.8746 36.4749 61.8922 36.3992C61.9098 36.3235 61.902 36.2448 61.8702 36.1762C61.8384 36.1076 61.7844 36.0532 61.7174 36.0221L61.7176 36.0216Z" fill="#D4CED4"/>
<path d="M60.8802 50.9519L61.0996 50.9974L61.0004 51.5263L60.7775 51.4854L60.8761 50.9637" fill="#858585"/>
<path d="M60.9009 50.9336C60.8366 50.9455 60.775 50.9715 60.7204 51.0099C60.6659 51.0482 60.6196 51.098 60.5848 51.1558C60.5652 51.1979 60.5549 51.2436 60.5547 51.2895C60.5545 51.3354 60.5644 51.3804 60.5836 51.421C60.6028 51.4616 60.6309 51.4969 60.6658 51.5241C60.7007 51.5514 60.7414 51.57 60.785 51.5785C60.7952 51.5794 60.8051 51.5825 60.8138 51.5878L60.9009 50.9336Z" fill="#858585"/>
<path d="M61.1157 50.9239L61.0759 50.9075L60.9631 51.5706C61.0262 51.5698 61.0884 51.55 61.1424 51.5137C61.1964 51.4775 61.2397 51.4262 61.2673 51.3661C61.2859 51.3256 61.2968 51.2819 61.2993 51.2376C61.3017 51.1934 61.2957 51.1494 61.2817 51.1083C61.2676 51.0672 61.2457 51.0298 61.2172 50.9981C61.1887 50.9664 61.1542 50.9412 61.1157 50.9239Z" fill="#858585"/>
<path d="M60.8797 50.9516L61.0993 50.9975L61.0009 51.5261L60.7777 51.4847L60.8757 50.9634" fill="#BABAB9"/>
<path d="M61.0138 50.9677L60.9136 51.5042L60.9895 51.5161L61.0592 50.9747L61.0138 50.9677Z" fill="#A1A0A0"/>
<path d="M60.9039 50.9295C60.8477 50.938 60.794 50.9612 60.7477 50.9968C60.7015 51.0324 60.6643 51.0793 60.6395 51.1331C60.6034 51.2151 60.599 51.3073 60.6271 51.3902C60.6553 51.4731 60.7138 51.5402 60.7903 51.5771C60.8005 51.5781 60.8103 51.5813 60.819 51.5865L60.9039 50.9295Z" fill="#D4CED4"/>
<path d="M61.1152 50.9235L61.0752 50.907L60.9634 51.5697C61.0266 51.569 61.0889 51.5495 61.1428 51.5133C61.1968 51.4772 61.2401 51.4261 61.2676 51.3661C61.2862 51.3256 61.297 51.282 61.2994 51.2377C61.3018 51.1935 61.2957 51.1495 61.2816 51.1084C61.2674 51.0672 61.2454 51.0297 61.2168 50.998C61.1883 50.9663 61.1537 50.9409 61.1152 50.9235Z" fill="#D4CED4"/>
<g opacity="0.2">
<path opacity="0.2" d="M64.1753 19.9739C64.2277 21.2368 64.2404 22.4953 64.249 23.7591C64.2577 25.023 64.2411 26.2798 64.2101 27.5404C64.1792 28.801 64.1337 30.0588 64.0781 31.3169C64.0226 32.575 63.9367 33.8326 63.8465 35.0884C63.7481 36.3409 63.6373 37.5929 63.505 38.8429C63.3726 40.0929 63.2157 41.3404 63.0269 42.5796C62.8382 43.8188 62.6272 45.0586 62.3746 46.2828C62.122 47.5071 61.8292 48.722 61.4655 49.9099C61.9983 47.4755 62.4133 45.0092 62.7087 42.5207C62.8585 41.2769 63.0005 40.0346 63.1159 38.7869C63.2313 37.5392 63.3448 36.2886 63.4336 35.0379C63.5336 33.7869 63.6133 32.5346 63.6876 31.2811C63.7618 30.0275 63.827 28.7724 63.8873 27.5182C64.0061 25.0051 64.1021 22.4904 64.1753 19.9739Z" fill="white"/>
</g>
<path d="M64.8373 24.7884L62.5635 25.703C62.5635 25.703 61.1564 26.1726 60.9783 28.3464C60.8289 29.619 60.5044 30.8651 60.0144 32.0473C60.0144 32.0473 59.2711 33.8358 62.1252 34.7373L64.0864 35.2544C64.5271 31.7811 64.7778 28.2869 64.8373 24.7884V24.7884Z" fill="#2C2C3A"/>
<path d="M64.9286 25.0908L62.7923 25.9514C62.7923 25.9514 61.4684 26.391 61.3052 28.4334C61.1637 29.6301 60.8577 30.8016 60.3963 31.9131C60.3963 31.9131 59.6989 33.5938 62.3833 34.442L64.2251 34.9301C64.6386 31.6648 64.8735 28.3798 64.9286 25.0908V25.0908Z" fill="#434154"/>
<path d="M63.0302 26.2082L63.0684 25.9928L63.6297 26.0417L63.5959 26.2629L63.0409 26.2124" fill="#858585"/>
<path d="M63.0102 26.1859C63.0238 26.2477 63.053 26.3054 63.0954 26.3549C63.1379 26.4043 63.1926 26.4442 63.2553 26.4714C63.3 26.4872 63.3485 26.4934 63.3969 26.4896C63.4453 26.4858 63.4923 26.472 63.5344 26.4494C63.5764 26.4268 63.6124 26.3959 63.6395 26.3591C63.6665 26.3224 63.6839 26.2807 63.6904 26.2374C63.6936 26.2286 63.6973 26.2199 63.7016 26.2114L63.0102 26.1859Z" fill="#858585"/>
<path d="M62.9895 25.9908C62.9831 26.0043 62.9788 26.0184 62.9764 26.0328L63.6744 26.0808C63.6718 26.0078 63.6411 25.9384 63.5874 25.8844C63.5337 25.8304 63.4604 25.7952 63.3798 25.7846C63.2992 25.774 63.2164 25.7887 63.1452 25.8263C63.0741 25.8639 63.0191 25.922 62.9895 25.9908V25.9908Z" fill="#858585"/>
<path d="M63.0302 26.2088L63.0686 25.9931L63.6297 26.0411L63.5957 26.2626L63.0409 26.213" fill="#BABAB9"/>
<path d="M63.0387 26.0842L63.6167 26.1303L63.6254 26.0529L63.0479 26.0362L63.0387 26.0842Z" fill="#A1A0A0"/>
<path d="M63.0061 26.1862C63.0191 26.2544 63.0568 26.3162 63.1133 26.3625C63.1699 26.4087 63.2423 26.4367 63.3196 26.4423C63.3969 26.4478 63.4748 26.4306 63.5415 26.3933C63.6082 26.356 63.6601 26.3005 63.6893 26.2354C63.6937 26.2276 63.6955 26.2181 63.7005 26.2094L63.0061 26.1862Z" fill="#D4CED4"/>
<path d="M62.9895 25.9912C62.9832 26.0047 62.9788 26.0189 62.9764 26.0333L63.6742 26.0802C63.6717 26.007 63.6411 25.9376 63.5875 25.8837C63.5339 25.8297 63.4606 25.7946 63.38 25.7841C63.2995 25.7736 63.2166 25.7885 63.1455 25.8263C63.0743 25.864 63.0192 25.9223 62.9895 25.9912V25.9912Z" fill="#D4CED4"/>
<path d="M63.2724 33.9634L63.4547 33.8153L63.8498 34.1699L63.6691 34.3269L63.2774 33.9726" fill="#858585"/>
<path d="M63.2878 33.9346C63.2553 33.9908 63.2372 34.0525 63.2348 34.1152C63.2324 34.178 63.2458 34.2401 63.274 34.2971C63.2971 34.3348 63.3298 34.3672 63.3696 34.3916C63.4094 34.4161 63.4551 34.432 63.5033 34.438C63.5515 34.4441 63.6008 34.4402 63.6475 34.4266C63.6941 34.413 63.7368 34.3902 63.7723 34.3598C63.7807 34.3536 63.7899 34.3484 63.7997 34.3442L63.2878 33.9346Z" fill="#858585"/>
<path d="M63.3829 33.7722C63.3681 33.7786 63.3544 33.7868 63.3421 33.7965L63.8439 34.2284C63.8937 34.1694 63.9191 34.0972 63.9159 34.0243C63.9127 33.9514 63.8811 33.8821 63.8264 33.8284C63.7718 33.7747 63.6974 33.7397 63.616 33.7296C63.5347 33.7194 63.4513 33.7346 63.3802 33.7727L63.3829 33.7722Z" fill="#858585"/>
<path d="M63.2727 33.9635L63.4553 33.8147L63.8495 34.1689L63.6686 34.3265L63.2777 33.9727" fill="#BABAB9"/>
<path d="M63.3663 33.8785L63.7744 34.2262L63.8383 34.1713L63.4072 33.8437L63.3663 33.8785Z" fill="#A1A0A0"/>
<path d="M63.281 33.9344C63.2512 33.9833 63.2359 34.0377 63.2367 34.0925C63.2375 34.1473 63.2542 34.2007 63.2853 34.2475C63.3326 34.3189 63.4107 34.3702 63.5024 34.3902C63.5942 34.4102 63.6922 34.3972 63.775 34.3542C63.7837 34.3482 63.7929 34.3429 63.8026 34.3384L63.281 33.9344Z" fill="#D4CED4"/>
<path d="M63.3835 33.7725C63.3687 33.779 63.355 33.7872 63.3427 33.797L63.843 34.2282C63.8929 34.1688 63.9186 34.0964 63.9156 34.0233C63.9127 33.9502 63.8813 33.8809 63.8268 33.8272C63.7723 33.7735 63.6981 33.7388 63.6168 33.7289C63.5355 33.719 63.4521 33.7346 63.3809 33.773L63.3835 33.7725Z" fill="#D4CED4"/>
<path d="M64.407 26.4915L61.0836 27.3293C60.9939 27.5848 60.933 27.8497 60.9019 28.1196L64.3929 27.2125C64.3999 26.9719 64.4046 26.7323 64.407 26.4915Z" fill="#F9B845"/>
<path d="M64.7181 29.2529L60.9591 30.2031C60.8941 30.4458 60.8207 30.714 60.7282 31.0044L64.6822 29.9758C64.694 29.7373 64.706 29.4963 64.7181 29.2529Z" fill="#F9B845"/>
<path d="M64.9525 32.2162L60.9446 33.2137L60.9176 33.5625C60.9988 33.6784 61.0921 33.7866 61.1962 33.8855L64.8975 32.9366C64.9166 32.6981 64.9375 32.4584 64.9525 32.2162Z" fill="#F9B845"/>
<path d="M61.602 29.8993L61.8167 29.9545L61.688 30.4791L61.4687 30.4273L61.5991 29.9059" fill="#858585"/>
<path d="M61.62 29.8858C61.5555 29.892 61.4927 29.9133 61.4363 29.9483C61.3799 29.9832 61.3315 30.0308 61.2948 30.0874C61.2725 30.1282 61.2594 30.1733 61.2564 30.2194C61.2534 30.2654 61.2606 30.3111 61.2775 30.353C61.2943 30.3949 61.3204 30.4318 61.3537 30.4609C61.387 30.49 61.4266 30.5105 61.4694 30.5209C61.4785 30.525 61.4873 30.5296 61.4958 30.5348L61.62 29.8858Z" fill="#858585"/>
<path d="M61.8405 29.8797C61.8274 29.8716 61.8134 29.8653 61.7987 29.861L61.6519 30.5181C61.7257 30.5226 61.7997 30.5002 61.8615 30.4548C61.9233 30.4094 61.9692 30.3436 61.9913 30.2687C62.0135 30.1937 62.0105 30.1141 61.9831 30.0432C61.9556 29.9724 61.9052 29.9146 61.8405 29.8797V29.8797Z" fill="#858585"/>
<path d="M61.6007 29.8989L61.8159 29.9548L61.6882 30.479L61.4684 30.4265L61.5978 29.9056" fill="#BABAB9"/>
<path d="M61.7298 29.9179L61.6047 30.459L61.6792 30.4779L61.7773 29.9339L61.7298 29.9179Z" fill="#A1A0A0"/>
<path d="M61.6209 29.8812C61.5654 29.8839 61.511 29.9023 61.4636 29.9344C61.4161 29.9665 61.3773 30.0111 61.3512 30.0636C61.3304 30.1032 61.317 30.1464 61.3119 30.1908C61.3069 30.2352 61.3101 30.2799 61.3216 30.3224C61.3331 30.3648 61.3525 30.4041 61.3788 30.4381C61.4051 30.472 61.4377 30.5 61.4748 30.5202L61.5009 30.5343L61.6209 29.8812Z" fill="#D4CED4"/>
<path d="M61.8398 29.8796C61.8267 29.8715 61.8127 29.8651 61.798 29.8608L61.6523 30.5175C61.7261 30.5221 61.8002 30.5 61.862 30.4547C61.9238 30.4094 61.9696 30.3437 61.9916 30.2688C62.0136 30.1939 62.0106 30.1143 61.9829 30.0434C61.9552 29.9725 61.9047 29.9146 61.8398 29.8796V29.8796Z" fill="#D4CED4"/>
<path opacity="0.1" d="M41.4293 20.9273C41.4293 20.9273 29.6144 26.0985 30.4459 33.2948C31.1989 39.8193 39.0577 42.2818 47.5682 39.1648L51.0171 30.1539L41.4293 20.9273Z" fill="black"/>
<path d="M53.849 33.1884C53.0015 34.9218 51.6424 36.3938 49.9435 37.4182C48.2445 38.4426 46.2821 38.9734 44.3043 38.9435C42.3266 38.9136 40.4224 38.3242 38.8325 37.2501C37.2426 36.1759 36.0384 34.6652 35.3722 32.9088C34.7061 31.1525 34.6079 29.2295 35.09 27.383C35.5722 25.5365 36.613 23.8495 38.0809 22.5352C39.5488 21.221 41.3779 20.3386 43.3368 19.9995C45.2957 19.6605 47.2965 19.8802 49.0861 20.6307C51.4856 21.6371 53.3353 23.5254 54.2285 25.8804C55.1217 28.2353 54.9852 30.8641 53.849 33.1884V33.1884Z" fill="#D1D1D1"/>
<path opacity="0.25" d="M53.7876 33.1865C52.9401 34.9197 51.581 36.3915 49.8822 37.4157C48.1834 38.44 46.2212 38.9707 44.2436 38.9408C42.2661 38.9109 40.362 38.3216 38.7722 37.2476C37.1825 36.1736 35.9784 34.663 35.3122 32.9069C34.646 31.1508 34.5477 29.228 35.0296 27.3816C35.5116 25.5353 36.5522 23.8483 38.0198 22.5341C39.4874 21.2198 41.3162 20.3373 43.2749 19.9981C45.2336 19.6589 47.2342 19.8782 49.0237 20.6283C51.4234 21.6347 53.2734 23.5231 54.1668 25.8781C55.0601 28.2331 54.9238 30.862 53.7876 33.1865V33.1865Z" fill="white"/>
<path d="M35.2103 31.406L35.4295 31.4504L35.3292 31.979L35.1056 31.9409L35.2063 31.4155" fill="#858585"/>
<path d="M35.2293 31.3888C35.1651 31.4001 35.1035 31.4258 35.0491 31.4642C34.9947 31.5025 34.9487 31.5525 34.9146 31.6104C34.8944 31.6522 34.8835 31.6979 34.883 31.7438C34.8825 31.7897 34.8924 31.8347 34.9118 31.8753C34.9312 31.9158 34.9596 31.9508 34.9949 31.9775C35.0302 32.0043 35.0714 32.022 35.1152 32.0294L35.1422 32.04L35.2293 31.3888Z" fill="#858585"/>
<path d="M35.4468 31.376C35.4334 31.3689 35.4191 31.3637 35.4042 31.3605L35.2949 32.0213C35.3689 32.0199 35.4412 31.9925 35.5 31.9434C35.5587 31.8943 35.6004 31.8265 35.6181 31.7513C35.6357 31.6761 35.6284 31.5979 35.5972 31.5297C35.566 31.4616 35.5128 31.4075 35.4465 31.3764L35.4468 31.376Z" fill="#858585"/>
<path d="M35.21 31.4061L35.4294 31.4509L35.3296 31.9792L35.1058 31.9408L35.2061 31.4157" fill="#BABAB9"/>
<path d="M35.3438 31.4167L35.242 31.9559L35.3182 31.9715L35.3887 31.4258L35.3438 31.4167Z" fill="#A1A0A0"/>
<path d="M35.2304 31.3872C35.174 31.394 35.1201 31.4156 35.074 31.45C35.0279 31.4844 34.9911 31.5303 34.9672 31.5835C34.9489 31.6235 34.9384 31.6668 34.9365 31.7109C34.9346 31.755 34.9412 31.799 34.9559 31.8403C34.9706 31.8816 34.9932 31.9194 35.0223 31.9516C35.0514 31.9837 35.0865 32.0096 35.1256 32.0276C35.1343 32.0322 35.1434 32.036 35.1528 32.0388L35.2304 31.3872Z" fill="#59584F"/>
<path d="M35.4432 31.3767C35.4296 31.3694 35.4151 31.3639 35.4001 31.3604L35.2984 32.018C35.373 32.0181 35.4456 31.9921 35.5043 31.9442C35.5629 31.8964 35.6041 31.8295 35.6209 31.7548C35.6378 31.68 35.6294 31.6018 35.597 31.5332C35.5646 31.4645 35.5103 31.4095 35.443 31.3771L35.4432 31.3767Z" fill="#59584F"/>
<path d="M52.3123 32.0562C51.6007 33.5116 50.4594 34.7474 49.0329 35.6075C47.6064 36.4675 45.9587 36.9131 44.2981 36.8878C42.6376 36.8626 41.0388 36.3677 39.7039 35.4658C38.3691 34.5638 37.3582 33.2952 36.799 31.8206C36.2398 30.3459 36.1574 28.7313 36.5624 27.1809C36.9674 25.6306 37.8414 24.2142 39.074 23.1109C40.3066 22.0075 41.8424 21.2667 43.4871 20.9823C45.1319 20.6978 46.8117 20.8823 48.3142 21.5126C50.3279 22.3586 51.88 23.9443 52.6297 25.9212C53.3793 27.8981 53.2651 30.1047 52.3123 32.0562V32.0562Z" fill="#83838A"/>
<path d="M52.509 32.0256C51.7968 33.4816 50.655 34.718 49.2277 35.5783C47.8005 36.4387 46.152 36.8844 44.4907 36.8592C42.8293 36.8339 41.2298 36.3388 39.8943 35.4365C38.5588 34.5341 37.5473 33.265 36.9877 31.7897C36.4281 30.3144 36.3455 28.699 36.7505 27.1479C37.1554 25.5968 38.0296 24.1796 39.2626 23.0755C40.4956 21.9714 42.0319 21.23 43.6774 20.9451C45.3229 20.6601 47.0036 20.8443 48.507 21.4745C49.5054 21.893 50.401 22.498 51.1424 23.2547C51.8839 24.0115 52.4569 24.9053 52.8285 25.8851C53.2001 26.8649 53.3632 27.9115 53.3084 28.9651C53.2535 30.0187 52.9819 31.0587 52.509 32.0256V32.0256Z" fill="#F6F5F5"/>
<path d="M49.4073 30.1471C48.9985 30.9802 48.3443 31.6878 47.5276 32.1804C46.7108 32.673 45.768 32.9285 44.8186 32.9146C43.8691 32.9007 42.9555 32.618 42.1933 32.1022C41.4311 31.5865 40.8545 30.8608 40.5365 30.0171C40.2185 29.1733 40.1733 28.2493 40.4067 27.3619C40.64 26.4745 41.1414 25.6636 41.8475 25.0316C42.5536 24.3997 43.4326 23.9751 44.3734 23.8116C45.3142 23.6481 46.2746 23.753 47.133 24.113C48.2843 24.596 49.1707 25.503 49.5972 26.6347C50.0237 27.7663 49.9554 29.0297 49.4073 30.1471Z" fill="#FFAD00"/>
<g opacity="0.35">
<g opacity="0.35">
<g opacity="0.35">
<path opacity="0.35" d="M45.2108 25.1858C45.214 25.355 45.2045 25.5237 45.1824 25.6901C45.1639 25.8572 45.1325 26.0217 45.0886 26.182C45.0838 26.0127 45.0929 25.8439 45.1159 25.6777C45.1333 25.5102 45.1651 25.3456 45.2108 25.1858V25.1858Z" fill="white"/>
</g>
<g opacity="0.35">
<path opacity="0.35" d="M46.5128 25.4813C46.4639 25.6426 46.4011 25.7991 46.3252 25.9489C46.2521 26.0986 46.1666 26.2418 46.0697 26.3769C46.1198 26.217 46.1831 26.062 46.2592 25.9135C46.3306 25.7618 46.4155 25.6172 46.5128 25.4813V25.4813Z" fill="white"/>
</g>
<g opacity="0.35">
<path opacity="0.35" d="M47.3904 26.0722C47.2893 26.1969 47.1777 26.3114 47.057 26.4142C46.9393 26.5207 46.8132 26.6162 46.6802 26.6999C46.8862 26.4537 47.1256 26.2421 47.3906 26.0717L47.3904 26.0722Z" fill="white"/>
</g>
<g opacity="0.35">
<path opacity="0.35" d="M48.0551 26.8496C47.9133 26.9325 47.7653 27.0043 47.6124 27.0644C47.4596 27.1258 47.3026 27.176 47.1428 27.2144C47.2845 27.1298 47.4332 27.0575 47.5873 26.9983C47.7391 26.9364 47.8956 26.8866 48.0551 26.8496V26.8496Z" fill="white"/>
</g>
<g opacity="0.35">
<path opacity="0.35" d="M48.4465 27.7429C48.2785 27.788 48.1078 27.821 47.9359 27.8415C47.7627 27.8641 47.5888 27.8742 47.4159 27.8716C47.5846 27.8261 47.7562 27.7931 47.9289 27.7728C48.1012 27.7502 48.2743 27.7402 48.4465 27.7429Z" fill="white"/>
</g>
<g opacity="0.35">
<path opacity="0.35" d="M48.5288 28.6788C48.3495 28.6923 48.1709 28.692 47.9947 28.6781C47.818 28.6653 47.6442 28.6393 47.4749 28.6002C47.6546 28.5879 47.8336 28.5891 48.0101 28.6036C48.1866 28.6142 48.3602 28.6394 48.5288 28.6788V28.6788Z" fill="white"/>
</g>
<g opacity="0.35">
<path opacity="0.35" d="M48.2964 29.6414C47.9521 29.5701 47.6225 29.4457 47.3177 29.272C47.4911 29.3036 47.6606 29.3516 47.8242 29.4154C47.988 29.4764 48.1459 29.552 48.2964 29.6414V29.6414Z" fill="white"/>
</g>
<g opacity="0.35">
<path opacity="0.35" d="M47.726 30.4909C47.5851 30.4051 47.4533 30.3084 47.332 30.2017C47.2093 30.0968 47.0976 29.9819 46.9982 29.8582C47.2768 30.0332 47.522 30.2462 47.7263 30.4905L47.726 30.4909Z" fill="white"/>
</g>
</g>
<g opacity="0.35">
<g opacity="0.35">
<path opacity="0.35" d="M46.5214 31.1012C46.4459 30.964 46.382 30.821 46.3304 30.6735C46.2789 30.5255 46.239 30.3737 46.2112 30.2192C46.3612 30.4951 46.4657 30.7924 46.5214 31.1012V31.1012Z" fill="white"/>
</g>
<g opacity="0.35">
<path opacity="0.35" d="M45.2198 31.4742C45.2017 31.3078 45.198 31.1403 45.2085 30.9739C45.2151 30.8081 45.2347 30.6434 45.267 30.4817C45.2828 30.648 45.2859 30.8152 45.2762 30.9814C45.2712 31.1475 45.2523 31.3124 45.2198 31.4742V31.4742Z" fill="white"/>
</g>
<g opacity="0.35">
<path opacity="0.35" d="M44.2353 31.4078C44.2514 31.2405 44.2805 31.0752 44.3225 30.9133C44.3634 30.7499 44.4169 30.5903 44.4824 30.4359C44.4489 30.7723 44.3655 31.1002 44.2349 31.4088L44.2353 31.4078Z" fill="white"/>
</g>
<g opacity="0.35">
<path opacity="0.35" d="M43.2651 31.0297C43.3329 30.8791 43.412 30.735 43.5018 30.5988C43.5904 30.4614 43.6897 30.3325 43.7988 30.2134C43.732 30.3643 43.6526 30.508 43.5615 30.6428C43.4733 30.7808 43.3742 30.9102 43.2651 31.0297V31.0297Z" fill="white"/>
</g>
<g opacity="0.35">
<path opacity="0.35" d="M42.4501 30.3738C42.5646 30.2607 42.6887 30.1586 42.8209 30.0689C42.9511 29.9784 43.0879 29.8987 43.2303 29.8307C43.1143 29.9419 42.9896 30.0427 42.8574 30.1321C42.728 30.2237 42.5918 30.3045 42.4501 30.3738V30.3738Z" fill="white"/>
</g>
<g opacity="0.35">
<path opacity="0.35" d="M41.865 29.5487C42.0164 29.4783 42.1731 29.4193 42.3334 29.3723C42.4937 29.3233 42.6575 29.2869 42.8231 29.2635C42.6711 29.3338 42.514 29.3929 42.3533 29.4403C42.1933 29.4887 42.03 29.5249 41.865 29.5487V29.5487Z" fill="white"/>
</g>
<g opacity="0.35">
<path opacity="0.35" d="M41.5683 28.6367C41.9147 28.5699 42.266 28.5488 42.6108 28.5743C42.4374 28.6084 42.2623 28.6305 42.0872 28.6405C41.9133 28.6514 41.7398 28.6502 41.5683 28.6367V28.6367Z" fill="white"/>
</g>
<g opacity="0.35">
<path opacity="0.35" d="M41.5833 27.6942C41.7619 27.6927 41.939 27.7048 42.1131 27.7303C42.2882 27.7536 42.4595 27.792 42.625 27.8452C42.4463 27.8473 42.2693 27.8348 42.0956 27.808C41.9204 27.785 41.749 27.7469 41.5833 27.6942V27.6942Z" fill="white"/>
</g>
<g opacity="0.35">
<path opacity="0.35" d="M41.9405 26.7772C42.1083 26.8258 42.2709 26.8878 42.4271 26.9627C42.5847 27.0347 42.7347 27.1207 42.8757 27.2197C42.7067 27.1721 42.543 27.1106 42.3862 27.0357C42.2297 26.9627 42.0806 26.8763 41.9405 26.7772V26.7772Z" fill="white"/>
</g>
<g opacity="0.35">
<path opacity="0.35" d="M42.5869 26.0059C42.72 26.0988 42.8431 26.2022 42.9551 26.3151C43.0682 26.4273 43.1704 26.5483 43.2607 26.6768C43.1276 26.5831 43.0045 26.479 42.8926 26.3654C42.78 26.2534 42.6778 26.1333 42.5869 26.0059Z" fill="white"/>
</g>
<g opacity="0.35">
<path opacity="0.35" d="M43.4057 25.4285C43.4933 25.5586 43.5687 25.6959 43.6314 25.8387C43.6995 25.9798 43.7529 26.1273 43.7909 26.279C43.7033 26.1489 43.6278 26.0117 43.5652 25.8688C43.4985 25.7271 43.4451 25.5798 43.4057 25.4285V25.4285Z" fill="white"/>
</g>
<g opacity="0.35">
<path opacity="0.35" d="M44.3633 25.0732C44.4072 25.229 44.4367 25.3887 44.4516 25.5503C44.4721 25.7105 44.4784 25.8725 44.4702 26.0341C44.4266 25.8788 44.3967 25.7197 44.3809 25.5588C44.3602 25.398 44.3543 25.2354 44.3633 25.0732V25.0732Z" fill="white"/>
</g>
</g>
</g>
<path d="M47.2896 29.2568C47.0804 29.6832 46.7456 30.0454 46.3276 30.2975C45.9096 30.5496 45.427 30.6804 44.9411 30.6732C44.4551 30.6661 43.9875 30.5213 43.5975 30.2573C43.2074 29.9933 42.9124 29.6219 42.7497 29.19C42.587 28.7582 42.564 28.2852 42.6835 27.8311C42.803 27.3769 43.0597 26.9619 43.4212 26.6386C43.7826 26.3152 44.2326 26.098 44.7141 26.0145C45.1956 25.9309 45.6871 25.9848 46.1264 26.1692C46.7153 26.4166 47.1685 26.8808 47.3866 27.4598C47.6047 28.0388 47.5698 28.6851 47.2896 29.2568V29.2568Z" fill="#292839"/>
<path d="M48.2414 26.2672C48.1659 26.4286 48.0393 26.563 47.8774 26.6533C47.7156 26.7436 47.5258 26.7858 47.3322 26.7746C47.1386 26.7634 46.9498 26.6992 46.7897 26.5903C46.6296 26.4813 46.5055 26.3325 46.4329 26.1625C46.3603 25.9926 46.3426 25.8092 46.3821 25.6356C46.4215 25.4619 46.5163 25.3059 46.6544 25.1871C46.7925 25.0684 46.9678 24.9923 47.158 24.9685C47.3483 24.9447 47.5449 24.9743 47.7231 25.0534C47.8414 25.1058 47.9486 25.1787 48.0387 25.268C48.1288 25.3574 48.2 25.4614 48.2481 25.5742C48.2962 25.6869 48.3204 25.8061 48.3193 25.9251C48.3181 26.044 48.2917 26.1603 48.2414 26.2672V26.2672Z" fill="white"/>
<path d="M42.8915 31.4129C42.8489 31.5019 42.769 31.5697 42.6693 31.6015C42.5696 31.6333 42.4583 31.6265 42.3596 31.5826C42.2609 31.5386 42.1828 31.4611 42.1425 31.367C42.1021 31.2729 42.1027 31.1697 42.1442 31.0801C42.1649 31.0354 42.1952 30.9955 42.2332 30.9625C42.2713 30.9295 42.3165 30.9043 42.3661 30.8881C42.4157 30.8719 42.4688 30.8652 42.5224 30.8684C42.5759 30.8715 42.6288 30.8844 42.6781 30.9063C42.7274 30.9283 42.772 30.9588 42.8094 30.9962C42.8468 31.0335 42.8763 31.077 42.8961 31.1241C42.916 31.1712 42.9258 31.2209 42.925 31.2705C42.9242 31.32 42.9128 31.3684 42.8915 31.4129V31.4129Z" fill="white"/>
<path d="M39.3204 36.4544L39.4049 36.6592L38.9181 36.8981L38.8245 36.6912L39.3091 36.4563" fill="#858585"/>
<path d="M39.3506 36.4721C39.3055 36.4262 39.25 36.3914 39.1882 36.3702C39.1264 36.3489 39.0598 36.3418 38.9932 36.3492C38.9478 36.3582 38.9045 36.3773 38.8666 36.4048C38.8288 36.4324 38.7976 36.4679 38.7752 36.5084C38.7528 36.5489 38.74 36.5934 38.7377 36.6386C38.7353 36.6837 38.7436 36.7282 38.7618 36.7687C38.7658 36.7798 38.7661 36.7886 38.7694 36.797L39.3506 36.4721Z" fill="#858585"/>
<path d="M39.4697 36.6161C39.4678 36.601 39.4644 36.5862 39.4595 36.572L38.8578 36.8805C38.8997 36.9418 38.9624 36.986 39.0355 37.0055C39.1086 37.0251 39.1876 37.0189 39.2593 36.9879C39.331 36.957 39.3909 36.9032 39.4292 36.8356C39.4675 36.768 39.4817 36.6906 39.4695 36.6165L39.4697 36.6161Z" fill="#858585"/>
<path d="M39.32 36.4555L39.4051 36.6604L38.9183 36.8975L38.8242 36.6904L39.3088 36.4574" fill="#BABAB9"/>
<path d="M39.3772 36.5749L38.8867 36.8063L38.9212 36.8773L39.3984 36.6197L39.3772 36.5749Z" fill="#A1A0A0"/>
<path d="M39.3502 36.4723C39.303 36.4193 39.2389 36.3839 39.1678 36.3715C39.0967 36.3591 39.0223 36.3704 38.9561 36.4037C38.8899 36.437 38.8354 36.4905 38.801 36.5559C38.7666 36.6213 38.7542 36.6952 38.7655 36.7662C38.7671 36.776 38.7696 36.7856 38.7731 36.7948L39.3502 36.4723Z" fill="#59584F"/>
<path d="M39.4691 36.6171C39.4671 36.6021 39.4637 36.5873 39.4587 36.573L38.8572 36.8789C38.8993 36.9403 38.9622 36.9846 39.0354 37.0045C39.1086 37.0243 39.1877 37.0185 39.2594 36.9878C39.331 36.9572 39.3909 36.9037 39.4291 36.8363C39.4672 36.7689 39.4812 36.6917 39.4688 36.6176L39.4691 36.6171Z" fill="#59584F"/>
<path d="M46.1311 38.1611L46.3367 38.0493L46.6387 38.4701L46.4301 38.5915L46.1352 38.1707" fill="#858585"/>
<path d="M46.1517 38.1277C46.1079 38.1781 46.0768 38.2365 46.0607 38.2987C46.0445 38.3609 46.0437 38.4253 46.0583 38.4871C46.0721 38.529 46.0963 38.5672 46.1291 38.5987C46.1619 38.6302 46.2025 38.6542 46.2475 38.6688C46.2926 38.6834 46.341 38.6882 46.389 38.6828C46.437 38.6775 46.4832 38.6621 46.5241 38.6379C46.5331 38.6325 46.5431 38.6287 46.5536 38.6266L46.1517 38.1277Z" fill="#858585"/>
<path d="M46.281 37.9968C46.2653 38.0011 46.25 38.0067 46.2353 38.0133L46.621 38.5304C46.6819 38.4809 46.7226 38.4141 46.7361 38.3414C46.7496 38.2687 46.7351 38.1946 46.695 38.1317C46.6549 38.0688 46.5917 38.021 46.5163 37.9964C46.4408 37.9718 46.3576 37.972 46.281 37.9968V37.9968Z" fill="#858585"/>
<path d="M46.1318 38.1617L46.3376 38.049L46.6381 38.4694L46.4292 38.5918L46.1358 38.1713" fill="#BABAB9"/>
<path d="M46.2449 38.0914L46.544 38.5135L46.6188 38.4704L46.2899 38.0648L46.2449 38.0914Z" fill="#A1A0A0"/>
<path d="M46.1461 38.1274C46.1063 38.1705 46.079 38.2216 46.0666 38.276C46.0542 38.3305 46.0572 38.3864 46.0752 38.4387C46.1047 38.5184 46.1683 38.5835 46.2521 38.6197C46.3359 38.6559 46.4332 38.6604 46.5229 38.6321C46.5324 38.6276 46.5424 38.6238 46.5526 38.6207L46.1461 38.1274Z" fill="#59584F"/>
<path d="M46.2816 37.9984C46.2659 38.0027 46.2506 38.0083 46.2359 38.0151L46.6196 38.5319C46.6807 38.4821 46.7216 38.415 46.7353 38.3421C46.749 38.2691 46.7347 38.1949 46.6948 38.132C46.655 38.0691 46.592 38.0214 46.5167 37.9971C46.4414 37.9727 46.3583 37.9731 46.2816 37.9984V37.9984Z" fill="#59584F"/>
<path d="M52.8986 34.2835L53.1013 34.3662L52.9235 34.8787L52.7143 34.8014L52.8944 34.2918" fill="#858585"/>
<path d="M52.9121 34.2763C52.8486 34.2762 52.7853 34.2912 52.7269 34.3201C52.6684 34.3489 52.6162 34.391 52.5742 34.4431C52.5481 34.4817 52.5305 34.5257 52.5228 34.5718C52.515 34.6178 52.5174 34.6646 52.5297 34.7086C52.542 34.7527 52.5638 34.7926 52.5935 34.8255C52.6233 34.8584 52.6601 34.8833 52.7012 34.8983C52.708 34.9041 52.7154 34.9092 52.7233 34.9135L52.9121 34.2763Z" fill="#858585"/>
<path d="M53.1368 34.2855C53.1253 34.2771 53.1133 34.2695 53.1009 34.2627L52.8892 34.9081C52.9608 34.9202 53.0351 34.9055 53.0998 34.8664C53.1645 34.8272 53.2156 34.7661 53.2446 34.6931C53.2736 34.6202 53.2788 34.5399 53.2591 34.4657C53.2395 34.3915 53.1963 34.3279 53.1368 34.2855Z" fill="#858585"/>
<path d="M52.8973 34.2832L53.1006 34.3668L52.9237 34.8785L52.714 34.8003L52.8931 34.2915" fill="#BABAB9"/>
<path d="M53.0168 34.3178L52.8521 34.8457L52.9224 34.8712L53.0576 34.3324L53.0168 34.3178Z" fill="#A1A0A0"/>
<path d="M52.9127 34.272C52.8431 34.269 52.7737 34.2907 52.7152 34.3338C52.6567 34.3768 52.6124 34.4388 52.5892 34.5101C52.5659 34.5815 52.565 34.6582 52.5866 34.7283C52.6082 34.7985 52.6511 34.8583 52.7086 34.8983C52.7151 34.9047 52.7225 34.9099 52.7306 34.9138L52.9127 34.272Z" fill="#59584F"/>
<path d="M53.1354 34.2857C53.1239 34.2772 53.1119 34.2695 53.0994 34.2627L52.8891 34.9071C52.9608 34.9196 53.0352 34.9052 53.1 34.8664C53.1647 34.8276 53.2158 34.7667 53.2446 34.6939C53.2735 34.6211 53.2784 34.5408 53.2585 34.4665C53.2386 34.3922 53.1952 34.3284 53.1354 34.2857Z" fill="#59584F"/>
<path d="M53.9627 26.8272L54.1465 26.6797L54.5409 27.0327L54.3597 27.1894L53.9692 26.8349" fill="#858585"/>
<path d="M53.9781 26.7986C53.9455 26.8549 53.9274 26.9167 53.9253 26.9795C53.9231 27.0423 53.9368 27.1045 53.9654 27.1614C53.9886 27.1991 54.0215 27.2313 54.0613 27.2556C54.1012 27.2799 54.147 27.2956 54.1952 27.3014C54.2433 27.3072 54.2926 27.3031 54.3391 27.2893C54.3856 27.2755 54.4282 27.2524 54.4633 27.2218C54.4733 27.2168 54.4828 27.211 54.4918 27.2046L53.9781 26.7986Z" fill="#858585"/>
<path d="M54.0736 26.6348C54.0587 26.6421 54.0446 26.6509 54.0318 26.6609L54.5356 27.0898C54.5853 27.0308 54.6107 26.9586 54.6075 26.8857C54.6043 26.8128 54.5726 26.7435 54.5179 26.6898C54.4632 26.636 54.3888 26.6011 54.3075 26.5909C54.2261 26.5808 54.1428 26.596 54.0716 26.634L54.0736 26.6348Z" fill="#858585"/>
<path d="M53.9632 26.8283L54.1474 26.6797L54.5404 27.0321L54.3588 27.1899L53.9696 26.8359" fill="#BABAB9"/>
<path d="M54.0568 26.7409L54.4653 27.0911L54.5295 27.0347L54.0979 26.7067L54.0568 26.7409Z" fill="#A1A0A0"/>
<path d="M53.9714 26.7984C53.9413 26.8473 53.9259 26.9017 53.9267 26.9566C53.9274 27.0114 53.9443 27.0648 53.9757 27.1116C54.0232 27.1828 54.1015 27.2338 54.1933 27.2534C54.2851 27.273 54.383 27.2595 54.4654 27.216C54.4756 27.211 54.4852 27.2051 54.494 27.1984L53.9714 26.7984Z" fill="#59584F"/>
<path d="M54.0743 26.6354C54.0594 26.6428 54.0454 26.6516 54.0325 26.6617L54.5345 27.0898C54.5844 27.0304 54.6101 26.958 54.6071 26.8849C54.6042 26.8118 54.5728 26.7425 54.5183 26.6888C54.4638 26.6351 54.3896 26.6004 54.3083 26.5905C54.227 26.5806 54.1436 26.5962 54.0724 26.6346L54.0743 26.6354Z" fill="#59584F"/>
<path d="M50.4625 21.2339L50.6707 21.2969L50.5312 21.8191L50.3138 21.7624L50.456 21.2445" fill="#858585"/>
<path d="M50.477 21.2221C50.4127 21.2274 50.3497 21.2476 50.2927 21.2813C50.2357 21.3149 50.1862 21.3612 50.1478 21.4166C50.125 21.4572 50.1112 21.5022 50.1074 21.5482C50.1036 21.5942 50.1099 21.6401 50.1259 21.6823C50.1419 21.7245 50.1671 21.762 50.1996 21.7918C50.2321 21.8216 50.2711 21.843 50.3135 21.8544C50.3204 21.858 50.3294 21.8628 50.3381 21.8673L50.477 21.2221Z" fill="#858585"/>
<path d="M50.6991 21.2204C50.6875 21.2119 50.6749 21.2051 50.6615 21.2003L50.4976 21.8544C50.5708 21.8607 50.645 21.8399 50.7076 21.7958C50.7702 21.7516 50.8173 21.6867 50.8411 21.612C50.8649 21.5373 50.8639 21.4574 50.8382 21.3857C50.8124 21.314 50.7637 21.255 50.7 21.2185L50.6991 21.2204Z" fill="#858585"/>
<path d="M50.4614 21.2334L50.67 21.297L50.5313 21.8187L50.3134 21.7613L50.4548 21.2439" fill="#BABAB9"/>
<path d="M50.5874 21.2556L50.4527 21.7921L50.5267 21.8123L50.6325 21.2695L50.5874 21.2556Z" fill="#A1A0A0"/>
<path d="M50.4763 21.2219C50.4203 21.2226 50.3654 21.2388 50.3173 21.2688C50.2692 21.2988 50.2295 21.3415 50.2023 21.3926C50.1598 21.4708 50.1488 21.5633 50.1717 21.65C50.1946 21.7366 50.2495 21.8102 50.3243 21.8546C50.3324 21.8596 50.3407 21.8642 50.3492 21.8683L50.4763 21.2219Z" fill="#59584F"/>
<path d="M50.6931 21.2211C50.6813 21.2123 50.6684 21.2052 50.6547 21.2001L50.5007 21.8501C50.5749 21.8583 50.6496 21.8395 50.7121 21.7969C50.7746 21.7544 50.8211 21.6907 50.8439 21.6166C50.8666 21.5425 50.8641 21.4625 50.8368 21.3901C50.8095 21.3177 50.759 21.2574 50.694 21.2193L50.6931 21.2211Z" fill="#59584F"/>
<path d="M43.1317 19.7729L43.2164 19.9784L42.7298 20.2193L42.635 20.0106L43.1221 19.7739" fill="#858585"/>
<path d="M43.1593 19.7931C43.1147 19.7467 43.0594 19.7114 42.9977 19.6896C42.9359 19.6678 42.8692 19.6602 42.8025 19.6673C42.7571 19.6765 42.7139 19.6957 42.6762 19.7234C42.6384 19.751 42.6072 19.7865 42.5848 19.827C42.5625 19.8675 42.5496 19.912 42.5471 19.9571C42.5447 20.0021 42.5527 20.0467 42.5707 20.0872C42.5747 20.0983 42.575 20.1071 42.5783 20.1156L43.1593 19.7931Z" fill="#858585"/>
<path d="M43.281 19.9344C43.2788 19.9199 43.2755 19.9056 43.2712 19.8917L42.6699 20.1996C42.7117 20.2609 42.7744 20.3051 42.8476 20.3246C42.9207 20.3442 42.9997 20.3379 43.0714 20.3068C43.143 20.2758 43.203 20.2219 43.2411 20.1541C43.2793 20.0864 43.2933 20.009 43.2808 19.9349L43.281 19.9344Z" fill="#858585"/>
<path d="M43.1314 19.7738L43.2166 19.9793L42.7301 20.2185L42.6348 20.0096L43.1218 19.7747" fill="#BABAB9"/>
<path d="M43.1881 19.8941L42.6995 20.1221L42.7323 20.1963L43.2098 19.938L43.1881 19.8941Z" fill="#A1A0A0"/>
<path d="M43.1615 19.7958C43.124 19.7532 43.0757 19.7215 43.0212 19.7037C42.9668 19.6859 42.9081 19.6826 42.8511 19.6943C42.7639 19.7122 42.6862 19.7631 42.6349 19.8361C42.5836 19.9091 42.5628 19.9982 42.5769 20.0843C42.5805 20.0964 42.5813 20.1043 42.5847 20.1128L43.1615 19.7958Z" fill="#59584F"/>
<path d="M43.2819 19.938C43.2796 19.9235 43.2762 19.9092 43.2718 19.8952L42.6707 20.1957C42.7131 20.2574 42.7763 20.3021 42.8498 20.3224C42.9233 20.3427 43.0025 20.3373 43.0742 20.3071C43.1459 20.2769 43.2057 20.2238 43.2435 20.1567C43.2812 20.0895 43.2947 20.0124 43.2817 19.9384L43.2819 19.938Z" fill="#59584F"/>
<path d="M36.7979 23.6138L36.8831 23.8195L36.393 24.0592L36.3007 23.8522L36.7877 23.6179" fill="#858585"/>
<path d="M36.8247 23.6334C36.7803 23.5876 36.7253 23.5529 36.6639 23.5319C36.6025 23.5108 36.5363 23.504 36.4703 23.5119C36.4246 23.5209 36.3811 23.5399 36.3432 23.5676C36.3052 23.5953 36.2738 23.6308 36.2514 23.6715C36.2289 23.7122 36.216 23.757 36.2137 23.8023C36.2114 23.8476 36.2198 23.8923 36.2381 23.9329C36.2416 23.9412 36.2442 23.95 36.2458 23.959L36.8247 23.6334Z" fill="#858585"/>
<path d="M36.948 23.7779C36.9457 23.763 36.9417 23.7485 36.9361 23.7347L36.3351 24.0415C36.3771 24.1027 36.4398 24.1468 36.5129 24.1663C36.5861 24.1858 36.6651 24.1796 36.7368 24.1488C36.8085 24.1179 36.8686 24.0643 36.907 23.9968C36.9455 23.9293 36.9599 23.852 36.948 23.7779V23.7779Z" fill="#858585"/>
<path d="M36.7975 23.6153L36.8831 23.8211L36.3932 24.0591L36.3003 23.852L36.7872 23.6194" fill="#BABAB9"/>
<path d="M36.8539 23.7345L36.3669 23.9659L36.3974 24.0391L36.8739 23.7815L36.8539 23.7345Z" fill="#A1A0A0"/>
<path d="M36.8246 23.6332C36.7773 23.5802 36.713 23.5448 36.6417 23.5327C36.5704 23.5206 36.4959 23.5323 36.4298 23.566C36.3636 23.5998 36.3094 23.6537 36.2754 23.7196C36.2415 23.7854 36.2296 23.8595 36.2417 23.9306L36.2494 23.9569L36.8246 23.6332Z" fill="#59584F"/>
<path d="M36.9479 23.7791C36.9456 23.7642 36.9416 23.7497 36.9359 23.7359L36.3351 24.0401C36.3772 24.1014 36.4402 24.1457 36.5134 24.1655C36.5866 24.1853 36.6657 24.1794 36.7374 24.1488C36.8091 24.1183 36.8691 24.0649 36.9074 23.9976C36.9458 23.9303 36.9601 23.8532 36.9479 23.7791V23.7791Z" fill="#59584F"/>
<path opacity="0.1" d="M40.6271 22.5719C40.6271 22.5719 33.7918 32.0946 46.0874 37.2776L43.7422 39.6334C41.9462 39.4157 40.2513 38.7695 38.813 37.7539C35.0424 35.0422 31.5881 29.5545 38.0505 22.8689C38.0503 22.8672 38.9594 22.7297 40.6271 22.5719Z" fill="#221E20"/>
<path d="M37.347 40.7152C37.347 40.7152 32.3012 39.9015 34.4862 45.2406C34.4862 45.2406 35.4275 48.6686 42.6305 50.6148C42.6305 50.6148 50.9028 52.9382 54.5103 46.8392C54.5103 46.8392 57.3811 42.723 55.1407 40.7484C55.1407 40.7484 53.5834 39.5739 50.5444 41.1115C49.5508 41.6172 48.4875 41.9794 47.3947 42.1844C47.3947 42.1844 46.37 42.5301 44.2252 42.253C42.852 42.079 40.5742 41.2667 39.7675 41.1358C38.9744 40.95 38.1661 40.8095 37.347 40.7152V40.7152Z" fill="#2C2C3A"/>
<path d="M55.8741 42.1366C55.8047 41.5093 55.4956 40.9383 54.9983 40.5188C54.9983 40.5188 53.3915 39.3689 50.3197 40.9334C49.3154 41.4479 48.2377 41.8205 47.1273 42.0371C47.1273 42.0371 46.0891 42.3931 43.898 42.1423C42.4955 41.9853 40.1604 41.2041 39.336 41.0832C38.5241 40.9076 37.6973 40.7774 36.8603 40.6931C36.8603 40.6931 33.1396 40.1534 33.4408 43.2276C38.1594 44.3705 48.7187 46.2133 55.8741 42.1366Z" fill="white"/>
<path d="M43.5187 50.7753C43.5187 50.7753 50.5384 52.5611 54.5028 48.3278C48.8032 49.9294 42.8941 49.6764 39.1279 49.2292C40.5088 49.8958 41.9818 50.4145 43.5187 50.7753V50.7753Z" fill="white"/>
<path d="M52.572 41.4458C50.085 42.5678 47.3851 43.1409 44.7129 43.1141C41.0018 43.0762 37.3518 42.6286 33.8434 41.7814C33.4749 42.3073 33.3287 42.9216 33.4343 43.5007C37.9214 44.505 47.6465 46.0447 54.7777 42.6394C54.5875 41.8615 54.0539 40.7632 52.572 41.4458Z" fill="white"/>
<path d="M44.2114 51.3404C43.5525 51.2706 42.9042 51.1533 42.2724 50.9893C35.178 49.047 34.0294 45.7184 33.939 45.4286C33.1877 43.5996 33.1843 42.2428 33.9275 41.395C34.836 40.361 36.5274 40.4659 37.0248 40.5257C37.0831 40.5324 37.123 40.5385 37.1401 40.5403C37.9673 40.6389 38.784 40.7827 39.5859 40.9708C39.9282 41.0294 40.4926 41.195 41.1451 41.387C42.0792 41.6875 43.0393 41.9269 44.0186 42.1036C46.0355 42.3695 47.0293 42.0601 47.04 42.0547L47.0668 42.0456L47.0986 42.0443C48.1536 41.8497 49.1795 41.5022 50.1369 41.0152C51.2231 40.4125 52.4683 40.1359 53.6863 40.2268C54.1884 40.2704 54.6617 40.4297 55.0632 40.6902L55.0799 40.703C57.4313 42.7814 54.6964 46.84 54.503 47.1187C51.8934 51.5273 46.9381 51.6564 44.2114 51.3404ZM36.9071 41.0778C36.6143 41.0406 35.1033 40.9122 34.3893 41.7231C33.8057 42.3895 33.8501 43.5952 34.5133 45.2084L34.521 45.2413C34.8102 45.958 35.2679 46.5986 35.8632 47.1203C36.8791 48.0938 38.8531 49.4615 42.4825 50.457C43.0851 50.6095 43.7022 50.72 44.3289 50.7876C46.8929 51.0857 51.5602 50.9694 53.9788 46.8724L53.9898 46.8532C54.0181 46.8096 56.6778 42.9354 54.6505 41.1245C54.3295 40.9313 53.9588 40.8122 53.5675 40.7769C52.4773 40.7069 51.3667 40.9593 50.3959 41.4977C49.3792 42.0127 48.2906 42.3809 47.1713 42.5884C46.0782 42.8286 44.9579 42.8503 43.8884 42.652C42.8761 42.4733 41.8842 42.2271 40.9203 41.9152C40.2807 41.7283 39.7267 41.5672 39.42 41.5161L39.4026 41.5086C38.6214 41.3253 37.8259 41.1853 37.0202 41.0893L37.0106 41.0896L37.0006 41.0887C37.0001 41.0896 36.9687 41.0849 36.9071 41.0778Z" fill="#8266BF"/>
<path d="M37.5086 15.9969C37.5086 15.9969 41.9332 14.0902 48.4524 15.7874C48.4512 15.7863 43.1473 10.6349 37.5086 15.9969Z" fill="white"/>
<path opacity="0.15" d="M48.3881 15.7368C47.8076 15.2074 42.809 10.9571 37.5088 15.9951C37.5088 15.9951 39.9853 14.295 42.6341 14.2586C44.6426 14.2302 47.2458 15.2442 48.3881 15.7368Z" fill="white"/>
<path d="M20.6791 25.4647C20.524 25.5865 20.3842 25.7283 20.2628 25.8871C20.1765 25.695 20.0319 25.5377 19.8524 25.4408C20.2793 22.9016 20.3898 20.3063 20.1811 17.7203C20.2558 17.3324 20.448 16.9834 20.729 16.7256C21.1106 16.3203 21.3654 15.8005 21.4602 15.2333C20.8591 15.0036 20.3087 14.641 19.8466 14.1704L20.2667 13.455C20.353 13.5339 20.4492 13.5996 20.5524 13.6502C20.8187 13.781 21.1182 13.8078 21.3966 13.726C21.675 13.6441 21.914 13.4589 22.07 13.2039C22.2261 12.949 22.289 12.6411 22.2474 12.3362C22.2057 12.0313 22.0623 11.7496 21.843 11.542C21.6237 11.3345 21.3431 11.2149 21.0522 11.2049C20.7612 11.195 20.4791 11.2953 20.2569 11.4877C20.0348 11.6802 19.8874 11.952 19.8414 12.2539C19.7954 12.5558 19.8539 12.8677 20.0062 13.1333L19.3301 14.3061C19.8346 14.8095 20.4316 15.1973 21.0819 15.444C21.0819 15.444 21.0501 15.6487 20.6542 15.9681C20.222 16.3862 19.9673 16.9711 19.9451 17.5964C19.9451 17.5964 19.9465 17.7279 19.9467 17.9621L19.8813 21.2948C19.8579 22.6571 19.7038 24.01 19.4213 25.3327C19.2413 25.3353 19.0676 25.3955 18.9232 25.5052C18.7787 25.6149 18.6702 25.7691 18.612 25.9474C18.5538 26.1257 18.5486 26.3198 18.5972 26.5041C18.6457 26.6884 18.7456 26.8543 18.8838 26.9798C19.1973 27.3108 19.7756 27.2672 19.7535 27.507C19.8121 28.0523 20.0027 28.5759 20.307 29.0272C20.6742 27.8884 20.8012 26.673 20.6791 25.4647V25.4647Z" fill="white"/>
<path d="M22.3789 29.6887C23.5048 27.0207 22.8684 25.3434 22.742 25.0612C22.7343 25.0492 22.7234 25.0398 22.7108 25.034C22.6982 25.0282 22.6844 25.0263 22.6709 25.0286C22.4677 25.0683 22.2758 25.1534 22.1082 25.2784C22.238 26.5482 22.099 27.8273 21.7011 29.0236C21.8753 29.2797 22.0807 29.511 22.3117 29.7117C22.3401 29.7344 22.3697 29.7073 22.3789 29.6887Z" fill="white"/>
<path d="M21.3105 12.8924C21.3456 12.818 21.3714 12.7404 21.3874 12.6607C21.0979 12.3606 20.7435 12.1105 20.3455 11.9252C19.9474 11.7399 19.5136 11.6232 19.0698 11.5819C18.9369 11.6971 18.8359 11.8367 18.7739 11.9912C18.7118 12.1456 18.6901 12.3113 18.7103 12.4769C19.2685 12.9416 19.9521 13.2791 20.6935 13.4559C20.9741 13.3397 21.1928 13.14 21.3105 12.8924V12.8924Z" fill="white"/>
<path d="M20.8284 13.435C21.0639 13.3089 21.246 13.1237 21.351 12.9033C21.3868 12.8275 21.4136 12.7486 21.431 12.6676C21.1332 12.3448 20.7613 12.0763 20.3397 11.8796C19.9182 11.6829 19.4566 11.5627 18.9855 11.5267C18.8621 11.6332 18.7644 11.7594 18.6977 11.8989C18.6303 12.0416 18.5959 12.1951 18.5962 12.3513C19.2109 12.8846 19.9866 13.2611 20.8284 13.435V13.435Z" fill="white"/>
<path opacity="0.7" d="M21.3079 12.6609C21.2947 12.7304 21.2613 12.782 21.1907 12.7675C21.1201 12.7531 21.1759 12.7062 21.1868 12.6367C21.1977 12.5672 21.1644 12.5026 21.2343 12.5162C21.3042 12.5297 21.3183 12.5923 21.3079 12.6609Z" fill="white"/>
</g>
<defs>
<clipPath id="clip0">
<rect width="80" height="70" fill="white"/>
</clipPath>
</defs>
</svg>
