<svg width="150" height="41" viewBox="0 0 150 41" fill="none" xmlns="http://www.w3.org/2000/svg">
<g clip-path="url(#clip0)">
<path fill-rule="evenodd" clip-rule="evenodd" d="M143.472 3.94165L149.748 3.98234C149.748 3.98234 138.08 22.5906 137.128 24.1072C136.818 24.5982 136.348 25.1279 136.11 25.7844C135.507 27.4348 134.889 31.0551 134.889 31.0551L129.147 31.0889C129.147 31.0889 130.04 27.3151 130.003 25.3051C129.971 23.5492 129.209 21.7954 128.782 20.0344C128.35 18.2517 127.764 14.7634 127.764 14.7634H133.667L134.482 18.5968L143.472 3.94165Z" fill="white"/>
<path fill-rule="evenodd" clip-rule="evenodd" d="M131.589 7.86616C132.747 8.68789 133.458 13.221 133.458 13.221C133.458 13.221 127.398 13.3262 124.101 13.3262H121.251L117.79 31.0551H112.498C112.498 31.0551 115.792 11.7882 116.569 8.29513C116.821 7.1641 118.295 7.35823 120.785 7.35823H124.76C127.327 7.35823 130.327 6.97237 131.589 7.86616Z" fill="white"/>
<path fill-rule="evenodd" clip-rule="evenodd" d="M106.951 16.5006C106.951 16.5006 107.116 15.3627 106.392 14.0448C105.773 12.9213 105.201 12.6599 103.573 12.5999C98.9744 12.4299 99.0637 16.4406 99.0637 16.4406L106.951 16.5006ZM111.938 11.9075C112.612 14.7686 111.328 21.491 111.328 21.491C111.328 21.491 104.62 21.3592 100.947 21.491C99.8044 21.532 98.4371 21.3448 98.0969 21.9703C97.6185 22.8468 98.2718 24.1961 98.8256 24.7661C99.4628 25.4223 100.704 25.4972 101.15 25.5637C104.132 26.0096 110.373 25.6789 110.373 25.6789L109.292 31.3134C109.292 31.3134 100.473 31.8341 96.0614 30.5948C95.1904 30.3506 94.3739 29.8572 93.8222 29.1575C93.6717 28.9661 93.541 28.7051 93.3986 28.4796C93.2849 28.2996 92.9533 27.7082 92.8045 27.2406C91.7969 24.0806 92.9225 18.0268 94.0259 14.7827C94.1539 14.4068 94.3147 13.9299 94.4841 13.5248C94.6956 13.0196 94.8746 12.4492 95.0436 12.1472C95.1573 11.9389 95.2982 11.8048 95.4163 11.6082C95.5525 11.3758 95.711 11.1506 95.8578 10.9496C96.265 10.3937 96.727 10.0006 97.2828 9.51234C99.1206 7.89234 102.447 6.63476 106.442 7.11614C107.947 7.29821 110.219 7.93062 111.328 9.75165C111.625 10.2379 111.772 11.2034 111.938 11.9079V11.9075Z" fill="white"/>
<path fill-rule="evenodd" clip-rule="evenodd" d="M87.6648 7.33605L92.7964 7.30054C92.7964 7.30054 89.9365 23.2685 88.4789 31.055H82.5756C78.45 31.055 74.7759 31.6564 73.2127 28.1798C71.6962 24.8043 73.1435 19.2533 73.8232 15.4819C74.3037 12.813 75.3156 7.35778 75.3156 7.35778L80.6324 7.30054C80.6324 7.30054 79.13 15.7936 78.5048 20.0343C78.281 21.5533 77.8193 22.9836 78.3015 24.1067C78.7594 25.1757 79.4007 25.2523 81.3545 25.305C81.9736 25.3223 84.0009 25.305 84.0009 25.305L87.6648 7.33605Z" fill="white"/>
<path fill-rule="evenodd" clip-rule="evenodd" d="M63.6459 18.8361C64.1832 16.5892 64.9669 14.1526 64.8673 12.1278C64.7595 9.96229 63.2167 7.99057 62.2212 7.57609C59.2229 6.33022 56.416 8.07195 55.3004 9.49264C53.8572 11.3326 53.3685 13.4819 52.8576 16.4409C52.4773 18.6375 52.1656 20.9564 52.8576 22.6695C54.0828 25.6982 57.9037 25.0368 62.0176 25.0657C62.6281 23.1395 63.1329 20.9761 63.6459 18.8361ZM70.7703 9.97195C71.3562 14.9885 69.1074 20.5257 67.5582 25.3409C69.1379 25.5088 70.5221 25.3151 70.6218 25.4537C70.7255 25.6333 69.563 31.2013 69.1578 31.2157C67.9042 31.254 63.7499 31.2947 62.0176 31.2947C56.3647 31.2947 51.0766 31.7282 48.3799 28.4199C47.2848 27.0757 46.5274 24.7706 46.344 23.1488C46.0388 20.4416 46.4214 17.4609 46.9549 15.0033C47.4374 12.7844 48.0558 10.6906 48.9904 8.77367C51.3658 3.89367 55.4978 0.271258 62.4245 1.10747C63.768 1.27022 65.6975 1.96264 66.9028 2.78436C66.986 2.84195 67.2775 3.11505 67.3443 3.16298C68.9729 4.38264 70.4568 7.29333 70.7703 9.97195Z" fill="white"/>
<path fill-rule="evenodd" clip-rule="evenodd" d="M45.7596 7.36505C45.4177 9.19781 45.0758 11.2754 44.7155 13.0864H39.0161C39.4576 11.0788 39.7957 9.08298 40.2375 7.33643C42.0612 7.33643 43.7569 7.36505 45.7599 7.36505" fill="white"/>
<path fill-rule="evenodd" clip-rule="evenodd" d="M38.8127 14.7637H44.3088C43.5901 19.4451 42.1671 26.9964 41.0518 32.253C40.3537 35.5426 39.8876 37.943 37.9985 39.6799C37.8295 39.8357 37.7319 39.7616 37.5913 39.9195C37.2432 40.3102 35.6331 40.7633 34.7419 40.8778C33.2925 41.0626 31.654 40.9019 29.8727 40.8588C30.3388 38.8537 30.8662 36.4457 31.2816 34.6485C35.6234 35.2671 35.7333 30.4368 36.5738 25.7844C37.0601 23.0961 38.534 15.8416 38.8127 14.7637Z" fill="white"/>
<path fill-rule="evenodd" clip-rule="evenodd" d="M25.9888 26.9823L25.871 27.3416C23.8642 31.9416 20.3078 34.7637 15.2354 34.8882C12.8641 34.9458 10.6047 34.2296 9.12873 33.4509C5.94358 31.7665 3.26438 28.6427 1.80129 25.3051C-0.297536 20.5206 -0.676052 13.8651 3.68801 8.89404C3.75539 8.89404 3.15862 9.97197 3.226 9.97197L3.10588 10.432C-0.0388448 22.0202 9.64992 31.9513 19.0683 30.8154C21.3318 30.5423 24.2181 29.0833 25.9888 26.9823Z" fill="white"/>
<path fill-rule="evenodd" clip-rule="evenodd" d="M20.2892 22.1906C22.6587 22.2096 25.1337 20.9062 26.5994 19.0762C25.3171 22.9072 21.6043 25.3696 16.6256 24.5865C12.4567 23.93 8.48549 18.9924 8.07651 14.0448C7.77738 10.4441 8.8435 8.29513 10.6004 5.68823C9.98988 7.05168 9.76166 8.10306 9.70482 8.77375C9.03744 16.5627 14.9912 22.1496 20.2892 22.1906Z" fill="white"/>
<path fill-rule="evenodd" clip-rule="evenodd" d="M26.3615 12.5161C25.9932 13.5106 23.8724 15.3886 22.9358 15.6234C19.2271 16.5534 16.852 14.4834 15.6078 12.1279C15.4229 11.7761 15.081 10.8155 15.0198 10.571C14.5373 8.63993 14.7591 5.71924 16.1984 4.20752C15.7648 5.64511 15.7015 7.31476 15.9298 8.40028C16.0681 9.05649 16.4893 10.2023 16.9109 10.923C17.6779 12.2358 18.1645 12.5548 19.1498 13.252C19.5936 13.5658 20.0697 13.8175 20.2754 13.8865C21.2096 14.2103 23.1822 15.063 26.3618 12.5161" fill="white"/>
</g>
<defs>
<clipPath id="clip0">
<rect width="150" height="40" fill="white" transform="translate(0 0.960205)"/>
</clipPath>
</defs>
</svg>
