<svg width="146" height="52" viewBox="0 0 146 52" fill="none" xmlns="http://www.w3.org/2000/svg">
<path d="M68.71 12.9002V33.9602H63.58V21.3302L58.87 33.9602H54.73L49.99 21.3002V33.9602H44.86V12.9002H50.92L56.83 27.4802L62.68 12.9002H68.71ZM89.4991 17.2202L78.9991 41.9102H73.4791L77.3191 33.3902L70.5091 17.2202H76.2391L80.1091 27.6902L83.9491 17.2202H89.4991ZM98.9741 34.1702C97.4341 34.1702 96.0541 33.9202 94.8341 33.4202C93.6141 32.9202 92.6341 32.1802 91.8941 31.2002C91.1741 30.2202 90.7941 29.0402 90.7541 27.6602H96.2141C96.2941 28.4402 96.5641 29.0402 97.0241 29.4602C97.4841 29.8602 98.0841 30.0602 98.8241 30.0602C99.5841 30.0602 100.184 29.8902 100.624 29.5502C101.064 29.1902 101.284 28.7002 101.284 28.0802C101.284 27.5602 101.104 27.1302 100.744 26.7902C100.404 26.4502 99.9741 26.1702 99.4541 25.9502C98.9541 25.7302 98.2341 25.4802 97.2941 25.2002C95.9341 24.7802 94.8241 24.3602 93.9641 23.9402C93.1041 23.5202 92.3641 22.9002 91.7441 22.0802C91.1241 21.2602 90.8141 20.1902 90.8141 18.8702C90.8141 16.9102 91.5241 15.3802 92.9441 14.2802C94.3641 13.1602 96.2141 12.6002 98.4941 12.6002C100.814 12.6002 102.684 13.1602 104.104 14.2802C105.524 15.3802 106.284 16.9202 106.384 18.9002H100.834C100.794 18.2202 100.544 17.6902 100.084 17.3102C99.6241 16.9102 99.0341 16.7102 98.3141 16.7102C97.6941 16.7102 97.1941 16.8802 96.8141 17.2202C96.4341 17.5402 96.2441 18.0102 96.2441 18.6302C96.2441 19.3102 96.5641 19.8402 97.2041 20.2202C97.8441 20.6002 98.8441 21.0102 100.204 21.4502C101.564 21.9102 102.664 22.3502 103.504 22.7702C104.364 23.1902 105.104 23.8002 105.724 24.6002C106.344 25.4002 106.654 26.4302 106.654 27.6902C106.654 28.8902 106.344 29.9802 105.724 30.9602C105.124 31.9402 104.244 32.7202 103.084 33.3002C101.924 33.8802 100.554 34.1702 98.9741 34.1702ZM124.811 37.5602L122.111 33.9302C121.311 34.0902 120.531 34.1702 119.771 34.1702C117.791 34.1702 115.971 33.7102 114.311 32.7902C112.671 31.8702 111.361 30.5902 110.381 28.9502C109.421 27.2902 108.941 25.4302 108.941 23.3702C108.941 21.3102 109.421 19.4602 110.381 17.8202C111.361 16.1802 112.671 14.9002 114.311 13.9802C115.971 13.0602 117.791 12.6002 119.771 12.6002C121.751 12.6002 123.561 13.0602 125.201 13.9802C126.861 14.9002 128.161 16.1802 129.101 17.8202C130.061 19.4602 130.541 21.3102 130.541 23.3702C130.541 25.1702 130.171 26.8202 129.431 28.3202C128.711 29.8002 127.701 31.0302 126.401 32.0102L131.021 37.5602H124.811ZM114.191 23.3702C114.191 25.2302 114.691 26.7202 115.691 27.8402C116.711 28.9402 118.071 29.4902 119.771 29.4902C121.451 29.4902 122.791 28.9302 123.791 27.8102C124.811 26.6902 125.321 25.2102 125.321 23.3702C125.321 21.5102 124.811 20.0302 123.791 18.9302C122.791 17.8102 121.451 17.2502 119.771 17.2502C118.071 17.2502 116.711 17.8002 115.691 18.9002C114.691 20.0002 114.191 21.4902 114.191 23.3702ZM138.584 30.0002H145.304V33.9602H133.454V12.9002H138.584V30.0002Z" fill="white"/>
<g clip-path="url(#clip0)">
<path d="M46.025 40.4943C43.3067 40.4255 41.1998 40.7017 39.4328 41.461C38.9231 41.6679 38.1074 41.6681 38.0395 42.3241C38.3113 42.6003 38.3453 43.0491 38.5832 43.4286C38.9914 44.1189 39.7045 45.0511 40.3502 45.5346C41.0637 46.0868 41.7776 46.639 42.5248 47.1223C43.8502 47.9509 45.3455 48.434 46.6367 49.2626C47.3846 49.7455 48.1316 50.3673 48.8793 50.885C49.2531 51.1608 49.4908 51.61 49.9668 51.7824V51.679C49.7287 51.3681 49.6608 50.9195 49.4231 50.5743C49.0836 50.229 48.7434 49.9183 48.4035 49.5731C47.4182 48.2271 46.1949 47.0532 44.8697 46.0868C43.7824 45.3273 41.4035 44.2917 40.9619 43.0144C40.9619 43.0144 40.9277 42.98 40.894 42.9455C41.6414 42.8765 42.5248 42.6003 43.2387 42.3931C44.394 42.0822 45.4473 42.1515 46.6367 41.8407C47.1803 41.7027 47.724 41.53 48.2676 41.3574V41.0469C47.6563 40.4255 47.2145 39.5971 46.5688 39.0102C44.8358 37.4909 42.9326 36.0068 40.9619 34.7642C39.9084 34.0737 38.549 33.6249 37.4277 33.0382C37.0203 32.8308 36.3404 32.7275 36.1027 32.3822C35.4908 31.6229 35.151 30.6219 34.7094 29.7243C33.7242 27.8255 32.7725 25.7199 31.9229 23.7179C31.3115 22.3715 30.9377 21.0251 30.1901 19.7826C26.6901 13.9142 22.8842 10.3586 17.0397 6.8719C15.7822 6.14709 14.2871 5.83638 12.6901 5.45682C11.8408 5.42209 10.991 5.35325 10.1416 5.31852C9.59786 5.07686 9.05411 4.4211 8.57833 4.11039C6.64181 2.86753 1.6463 0.175269 0.219152 3.73082C-0.698426 5.97447 1.57853 8.1836 2.35978 9.32309C2.9379 10.1169 3.68517 11.0144 4.09298 11.912C4.33087 12.4985 4.39864 13.1203 4.63653 13.7415C5.18048 15.26 5.68986 16.9519 6.40372 18.3673C6.77755 19.0921 7.18517 19.8515 7.66095 20.5074C7.93282 20.887 8.40841 21.0598 8.51056 21.681C8.03497 22.3715 8.00079 23.4072 7.72872 24.2701C6.50548 28.1709 6.98146 33.0036 8.71427 35.8687C9.25782 36.7314 10.5492 38.6306 12.2822 37.9054C13.8115 37.2842 13.4717 35.3165 13.9131 33.5905C14.0154 33.1759 13.9475 32.9001 14.1512 32.6239V32.6931C14.627 33.6594 15.1025 34.5917 15.5443 35.5582C16.5979 37.2495 18.4326 39.0102 19.9617 40.184C20.7776 40.805 21.4231 41.8753 22.4426 42.255V42.1513H22.3744C22.1705 41.8405 21.8647 41.7026 21.593 41.4608C20.9815 40.8398 20.3016 40.0802 19.826 39.3898C18.399 37.4564 17.1414 35.3163 16.0201 33.107C15.4766 32.0372 15.0006 30.8634 14.559 29.7933C14.3549 29.3786 14.3549 28.7576 14.0152 28.5507C13.5055 29.31 12.758 29.9659 12.3842 30.8979C11.7389 32.3822 11.6707 34.2118 11.4328 36.1102C11.2969 36.1451 11.3647 36.1102 11.2967 36.1796C10.2096 35.903 9.83575 34.7642 9.42775 33.7975C8.40821 31.3467 8.23829 27.4114 9.12208 24.5808C9.35997 23.8558 10.3795 21.5777 9.97169 20.8872C9.76779 20.2312 9.0879 19.8515 8.71427 19.3338C8.27267 18.6778 7.79669 17.8497 7.49103 17.1245C6.6754 15.1913 6.26759 13.0511 5.38419 11.1179C4.97638 10.2203 4.2631 9.28856 3.68517 8.45999C3.03966 7.52805 2.32599 6.8719 1.81622 5.76733C1.6465 5.38777 1.40841 4.76634 1.68028 4.35205C1.74825 4.07586 1.884 3.97249 2.15607 3.90344C2.59786 3.52348 3.85528 4.00682 4.29669 4.21396C5.55411 4.73142 6.60743 5.21515 7.66095 5.93995C8.13653 6.28519 8.6463 6.94114 9.25782 7.11376H9.9715C11.059 7.35523 12.282 7.18281 13.3016 7.49332C15.1027 8.08003 16.7336 8.94313 18.1949 9.87527C22.6465 12.7403 26.316 16.8138 28.7969 21.681C29.2047 22.4747 29.3744 23.2001 29.7483 24.0282C30.4621 25.7199 31.3455 27.4459 32.0588 29.1028C32.7725 30.7251 33.452 32.3822 34.4715 33.7286C34.9813 34.4532 37.0199 34.8332 37.9375 35.213C38.6172 35.5235 39.6707 35.7999 40.2822 36.1794C41.4375 36.904 42.5928 37.733 43.6803 38.5267C44.224 38.9409 45.9229 39.804 46.025 40.4943Z" fill="white"/>
<path d="M11.3644 10.4963C10.7869 10.4963 10.3793 10.5658 9.97147 10.6692V10.7382H10.0394C10.3115 11.2906 10.7869 11.6703 11.1265 12.1535C11.3986 12.7057 11.6363 13.2582 11.9084 13.8106C11.9422 13.7759 11.9762 13.7416 11.9762 13.7416C12.4521 13.3961 12.6898 12.844 12.6898 12.0154C12.4859 11.7739 12.4519 11.5323 12.282 11.2906C12.0783 10.9451 11.6363 10.7727 11.3644 10.4963Z" fill="white"/>
</g>
<defs>
<clipPath id="clip0">
<rect width="50" height="50" fill="white" transform="translate(0 1.96021)"/>
</clipPath>
</defs>
</svg>
