<svg width="40" height="40" viewBox="0 0 40 40" fill="none" xmlns="http://www.w3.org/2000/svg">
<path d="M37.1429 26.6667H2.85714C1.27946 26.6667 0 28.6569 0 31.1111V35.5556C0 38.0097 1.27946 40 2.85714 40H37.1429C38.7205 40 40 38.0097 40 35.5556V31.1111C40 28.6569 38.7205 26.6667 37.1429 26.6667ZM37.1429 0H2.85714C1.27946 0 0 1.99028 0 4.44444V8.88889C0 11.3431 1.27946 13.3333 2.85714 13.3333H37.1429C38.7205 13.3333 40 11.3431 40 8.88889V4.44444C40 1.99028 38.7205 0 37.1429 0Z" fill="#808080"/>
</svg>
