<svg width="95" height="97" viewBox="0 0 95 97" fill="none" xmlns="http://www.w3.org/2000/svg">
<path d="M0 10.96C0 5.43712 4.47715 0.959961 10 0.959961H85C90.5228 0.959961 95 5.43711 95 10.96V86.96C95 92.4828 90.5229 96.96 85 96.96H10C4.47715 96.96 0 92.4828 0 86.96V10.96Z" fill="#FEA055"/>
<path d="M51.0333 26.032V34.8H32.7293V44.272H46.4253V52.784H32.7293V70.96H21.7853V26.032H51.0333ZM70.7813 66.496H61.3493L59.8373 70.96H53.3933L62.5373 45.688H69.6653L78.8093 70.96H72.2933L70.7813 66.496ZM69.1973 61.744L66.0653 52.492L62.9693 61.744H69.1973ZM84.4722 71.248C83.3922 71.248 82.5042 70.936 81.8082 70.312C81.1362 69.664 80.8002 68.872 80.8002 67.936C80.8002 66.976 81.1362 66.172 81.8082 65.524C82.5042 64.876 83.3922 64.552 84.4722 64.552C85.5282 64.552 86.3922 64.876 87.0642 65.524C87.7602 66.172 88.1082 66.976 88.1082 67.936C88.1082 68.872 87.7602 69.664 87.0642 70.312C86.3922 70.936 85.5282 71.248 84.4722 71.248Z" fill="#AE745C"/>
<path d="M10 3.95996H85V-2.04004H10V3.95996ZM92 10.96V86.96H98V10.96H92ZM85 93.96H10V99.96H85V93.96ZM3 86.96V10.96H-3V86.96H3ZM10 93.96C6.13401 93.96 3 90.826 3 86.96H-3C-3 94.1397 2.8203 99.96 10 99.96V93.96ZM92 86.96C92 90.826 88.866 93.96 85 93.96V99.96C92.1797 99.96 98 94.1397 98 86.96H92ZM85 3.95996C88.866 3.95996 92 7.09397 92 10.96H98C98 3.78026 92.1797 -2.04004 85 -2.04004V3.95996ZM10 -2.04004C2.8203 -2.04004 -3 3.78026 -3 10.96H3C3 7.09397 6.13401 3.95996 10 3.95996V-2.04004Z" fill="#AE745C"/>
</svg>
