<svg width="100" height="80" viewBox="0 0 100 80" fill="none" xmlns="http://www.w3.org/2000/svg">
<path d="M0 10C0 4.47715 4.47715 0 10 0H90C95.5228 0 100 4.47715 100 10V70C100 75.5228 95.5228 80 90 80H10C4.47716 80 0 75.5228 0 70V10Z" fill="#FEA055"/>
<path d="M48.381 19.9V26.75H34.081V34.15H44.781V40.8H34.081V55H25.531V19.9H48.381ZM69.7348 50.04H59.2548L57.5748 55H50.4148L60.5748 26.92H68.4948L78.6548 55H71.4148L69.7348 50.04ZM67.9748 44.76L64.4948 34.48L61.0548 44.76H67.9748ZM84.9469 55.32C83.7469 55.32 82.7603 54.9733 81.9869 54.28C81.2403 53.56 80.8669 52.68 80.8669 51.64C80.8669 50.5733 81.2403 49.68 81.9869 48.96C82.7603 48.24 83.7469 47.88 84.9469 47.88C86.1203 47.88 87.0803 48.24 87.8269 48.96C88.6003 49.68 88.9869 50.5733 88.9869 51.64C88.9869 52.68 88.6003 53.56 87.8269 54.28C87.0803 54.9733 86.1203 55.32 84.9469 55.32Z" fill="#AE745C"/>
<path d="M10 3H90V-3H10V3ZM97 10V70H103V10H97ZM90 77H10V83H90V77ZM3 70V10H-3V70H3ZM10 77C6.13401 77 3 73.866 3 70H-3C-3 77.1797 2.8203 83 10 83V77ZM97 70C97 73.866 93.866 77 90 77V83C97.1797 83 103 77.1797 103 70H97ZM90 3C93.866 3 97 6.13401 97 10H103C103 2.8203 97.1797 -3 90 -3V3ZM10 -3C2.8203 -3 -3 2.8203 -3 10H3C3 6.13401 6.13401 3 10 3V-3Z" fill="#AE745C"/>
</svg>
