<svg width="286" height="140" viewBox="0 0 286 140" fill="none" xmlns="http://www.w3.org/2000/svg">
<path d="M0.556371 45.962C0.916645 44.6849 1.55854 43.5188 2.42812 42.5618C3.09179 41.7966 3.94373 41.2467 4.88635 40.975C4.42465 41.755 4.00663 42.6551 3.69467 43.6152C3.34528 44.5953 3.12067 45.642 3.05204 46.7288C2.94688 47.6677 2.94688 48.6167 3.05204 49.5557C3.24666 48.8597 3.54588 48.2022 3.938 47.6089C4.71065 46.493 5.74312 45.6127 6.9328 45.0553C8.25053 44.4212 9.74123 44.3305 11.1178 44.8007C12.4943 45.271 13.6594 46.2688 14.3886 47.6022C14.7006 48.1489 14.9501 48.7423 15.1373 49.3757C22.512 36.2546 35.7827 27.5672 50.9563 27.5672C51.73 27.5672 52.4974 27.5872 53.2586 27.6339C57.9661 27.6432 62.65 28.3455 67.1781 29.7207C67.565 26.8271 71.1213 20.96 87.4679 20.96L82.4766 37.6947C85.6152 40.4058 88.2537 43.7182 90.2568 47.4622L99.9462 47.6289C99.9462 47.6289 101.007 74.2977 93.7071 74.2977H90.3379C88.0443 78.4524 84.9755 82.0585 81.3223 84.892L81.2287 100.96H74.4904C66.3171 100.96 62.5113 100.96 62.5113 95.9595V93.3593C56.218 94.6055 49.7626 94.5874 43.4756 93.306L43.7938 95.9595C43.7938 100.96 39.9255 100.96 31.6898 100.96H25.0763V85.0253C19.2259 80.6909 15.0155 74.2672 13.2032 66.9105C12.8475 66.7304 12.4919 66.7504 12.13 66.7504C11.7681 66.7504 11.4125 66.7304 11.0569 66.6838C9.49085 66.3771 8.06209 65.7237 6.82049 64.7969C5.14243 63.5283 3.85818 61.7519 3.13315 59.6965C2.95845 59.0765 2.82743 58.4231 2.74008 57.7497L2.73384 57.683C1.35498 55.9362 0.412872 53.7494 0.119631 51.3425C-0.135345 49.5033 0.0185449 47.6258 0.568848 45.862L0.556371 45.962ZM78.0468 45.962C76.8057 45.962 75.6155 46.4889 74.738 47.4266C73.8604 48.3644 73.3674 49.6363 73.3674 50.9625C73.3674 52.2887 73.8604 53.5605 74.738 54.4983C75.6155 55.4361 76.8057 55.9629 78.0468 55.9629C79.2878 55.9629 80.478 55.4361 81.3556 54.4983C82.2331 53.5605 82.7261 52.2887 82.7261 50.9625C82.7261 49.6363 82.2331 48.3644 81.3556 47.4266C80.478 46.4889 79.2878 45.962 78.0468 45.962V45.962ZM63.26 40.9616C63.9646 41.2031 64.7264 41.1702 65.4105 40.8688C66.0946 40.5674 66.6567 40.0168 66.9972 39.3148C67.1033 38.965 67.1388 38.5951 67.1013 38.2295C67.0638 37.864 66.9542 37.5111 66.7797 37.1942C66.6051 36.8772 66.3697 36.6034 66.0888 36.3909C65.808 36.1784 65.4881 36.0319 65.1504 35.9612C61.0468 34.9097 56.8353 34.4169 52.6159 34.4944L51.9858 34.4878C47.7931 34.4878 43.7251 35.0211 39.8257 36.0346C39.0395 36.1946 38.191 37.248 38.191 38.5148C38.1913 38.7842 38.2313 39.052 38.3095 39.3082C38.528 39.7404 38.8361 40.1136 39.2103 40.399C39.5844 40.6844 40.0148 40.8746 40.4683 40.955H41.4229C44.9084 40.0581 48.4818 39.6104 52.0669 39.6215H52.6222C56.3969 39.6215 60.0655 40.1082 63.5782 41.0283L63.26 40.9616ZM8.97924 60.4966C9.8211 61.1509 10.7851 61.6035 11.8056 61.8234L12.598 61.8967V60.9633V58.8965C11.5685 59.7299 10.2645 60.2299 8.85446 60.2299H8.72343L8.97924 60.4966ZM8.48011 55.9629C9.06007 56.0497 9.65083 55.9361 10.1661 55.6386C10.6813 55.3411 11.094 54.8754 11.3439 54.3094C11.6298 53.7272 11.7786 53.0793 11.7776 52.4218C11.7765 51.7642 11.6255 51.1169 11.3376 50.5358C11.041 50.097 10.6042 49.7896 10.1099 49.6716C9.61554 49.5537 9.09789 49.6334 8.65481 49.8957C8.08946 50.1276 7.60317 50.5372 7.2601 51.0704C6.91703 51.6037 6.7333 52.2355 6.73315 52.8826V52.8893C6.60987 53.8137 6.61196 54.7524 6.73938 55.6762C7.31885 55.7955 7.90905 55.8447 8.49883 55.8229L8.48011 55.9629Z" fill="#CA2ACA"/>
<path d="M42 4.29321C40.0222 4.29321 38.0888 4.8797 36.4443 5.97852C34.7998 7.07733 33.5181 8.63912 32.7612 10.4664C32.0043 12.2936 31.8063 14.3043 32.1922 16.2441C32.578 18.1839 33.5304 19.9658 34.9289 21.3643C36.3275 22.7628 38.1093 23.7152 40.0491 24.1011C41.9889 24.4869 43.9996 24.2889 45.8268 23.532C47.6541 22.7751 49.2159 21.4934 50.3147 19.8489C51.4135 18.2044 52 16.271 52 14.2932C51.997 11.642 50.9425 9.10017 49.0678 7.22546C47.193 5.35075 44.6512 4.29622 42 4.29321V4.29321ZM43.1538 18.9086H42.7692V19.6778C42.7692 19.8818 42.6882 20.0775 42.5439 20.2218C42.3997 20.366 42.204 20.4471 42 20.4471C41.796 20.4471 41.6003 20.366 41.4561 20.2218C41.3118 20.0775 41.2308 19.8818 41.2308 19.6778V18.9086H39.6923C39.4883 18.9086 39.2926 18.8276 39.1484 18.6833C39.0041 18.539 38.9231 18.3434 38.9231 18.1394C38.9231 17.9354 39.0041 17.7397 39.1484 17.5954C39.2926 17.4512 39.4883 17.3701 39.6923 17.3701H43.1538C43.4599 17.3701 43.7534 17.2486 43.9697 17.0322C44.1861 16.8158 44.3077 16.5223 44.3077 16.2163C44.3077 15.9103 44.1861 15.6168 43.9697 15.4004C43.7534 15.184 43.4599 15.0624 43.1538 15.0624H40.8462C40.1321 15.0624 39.4473 14.7788 38.9424 14.2739C38.4375 13.769 38.1538 13.0842 38.1538 12.3701C38.1538 11.6561 38.4375 10.9713 38.9424 10.4664C39.4473 9.96148 40.1321 9.67783 40.8462 9.67783H41.2308V8.9086C41.2308 8.70458 41.3118 8.50893 41.4561 8.36467C41.6003 8.22041 41.796 8.13937 42 8.13937C42.204 8.13937 42.3997 8.22041 42.5439 8.36467C42.6882 8.50893 42.7692 8.70458 42.7692 8.9086V9.67783H44.3077C44.5117 9.67783 44.7074 9.75887 44.8516 9.90313C44.9959 10.0474 45.0769 10.243 45.0769 10.4471C45.0769 10.6511 44.9959 10.8467 44.8516 10.991C44.7074 11.1352 44.5117 11.2163 44.3077 11.2163H40.8462C40.5401 11.2163 40.2467 11.3379 40.0303 11.5542C39.8139 11.7706 39.6923 12.0641 39.6923 12.3701C39.6923 12.6762 39.8139 12.9696 40.0303 13.186C40.2467 13.4024 40.5401 13.524 40.8462 13.524H43.1538C43.8679 13.524 44.5527 13.8076 45.0576 14.3125C45.5625 14.8174 45.8462 15.5022 45.8462 16.2163C45.8462 16.9303 45.5625 17.6151 45.0576 18.12C44.5527 18.6249 43.8679 18.9086 43.1538 18.9086V18.9086Z" fill="#CA2ACA"/>
<path d="M103.034 96.96H117.949C125.79 96.96 129.966 92.8691 129.966 87.3122C129.966 82.1475 126.267 79.0281 122.295 78.8406V78.4997C125.926 77.6816 128.602 75.1077 128.602 70.9997C128.602 65.7668 124.716 62.0509 117.011 62.0509H103.034V96.96ZM110.415 90.9259V81.6531H116.602C120.148 81.6531 122.347 83.6986 122.347 86.5793C122.347 89.2043 120.557 90.9259 116.432 90.9259H110.415ZM110.415 76.6588V68.0168H116.023C119.295 68.0168 121.153 69.7043 121.153 72.227C121.153 74.9884 118.903 76.6588 115.886 76.6588H110.415ZM142.098 97.4543C145.967 97.4543 148.473 95.7668 149.751 93.3293H149.956V96.96H156.842V79.3009C156.842 73.0622 151.558 70.4372 145.729 70.4372C139.456 70.4372 135.331 73.4372 134.325 78.21L141.041 78.7554C141.536 77.0168 143.087 75.7384 145.695 75.7384C148.166 75.7384 149.581 76.9827 149.581 79.1304V79.2327C149.581 80.9202 147.791 81.1418 143.24 81.585C138.058 82.0622 133.405 83.8009 133.405 89.6475C133.405 94.8293 137.104 97.4543 142.098 97.4543ZM144.178 92.4429C141.945 92.4429 140.342 91.4031 140.342 89.4088C140.342 87.3634 142.03 86.3577 144.587 85.9997C146.172 85.7781 148.763 85.4031 149.632 84.8236V87.602C149.632 90.3463 147.365 92.4429 144.178 92.4429ZM169.737 81.8236C169.754 78.4486 171.766 76.4713 174.697 76.4713C177.612 76.4713 179.368 78.3804 179.351 81.585V96.96H186.612V80.2895C186.612 74.1872 183.033 70.4372 177.578 70.4372C173.692 70.4372 170.879 72.3463 169.703 75.3975H169.396V70.7781H162.476V96.96H169.737V81.8236ZM192.335 96.96H199.597V88.6418L201.557 86.4088L208.699 96.96H217.205L206.994 82.1134L216.71 70.7781H208.375L199.989 80.7156H199.597V62.0509H192.335V96.96Z" fill="#CA2ACA"/>
<path d="M219.788 109.96L221.732 103.99H231.179L233.122 109.96H239.054L230.028 83.7781H222.895L213.857 109.96H219.788ZM223.138 99.6688L226.359 89.7611H226.564L229.786 99.6688H223.138ZM242.103 117.324H247.549V106.815H247.715C248.469 108.451 250.119 110.28 253.289 110.28C257.763 110.28 261.254 106.738 261.254 100.167C261.254 93.4173 257.61 90.0679 253.302 90.0679C250.016 90.0679 248.444 92.0239 247.715 93.6219H247.472V90.3236H242.103V117.324ZM247.434 100.142C247.434 96.6389 248.917 94.4017 251.563 94.4017C254.261 94.4017 255.692 96.7412 255.692 100.142C255.692 103.568 254.235 105.946 251.563 105.946C248.942 105.946 247.434 103.645 247.434 100.142ZM264.884 117.324H270.33V106.815H270.496C271.251 108.451 272.9 110.28 276.07 110.28C280.545 110.28 284.035 106.738 284.035 100.167C284.035 93.4173 280.391 90.0679 276.083 90.0679C272.798 90.0679 271.225 92.0239 270.496 93.6219H270.254V90.3236H264.884V117.324ZM270.215 100.142C270.215 96.6389 271.698 94.4017 274.344 94.4017C277.042 94.4017 278.474 96.7412 278.474 100.142C278.474 103.568 277.016 105.946 274.344 105.946C271.724 105.946 270.215 103.645 270.215 100.142Z" fill="#CA2ACA"/>
</svg>
