<svg width="327" height="121" viewBox="0 0 327 121" fill="none" xmlns="http://www.w3.org/2000/svg">
<path d="M70.01 74.9V79.01H64.43V95.96H59.3V79.01H53.72V74.9H70.01ZM82.8746 79.04C84.7946 79.04 86.3346 79.68 87.4946 80.96C88.6546 82.22 89.2346 83.96 89.2346 86.18V95.96H84.1346V86.87C84.1346 85.75 83.8446 84.88 83.2646 84.26C82.6846 83.64 81.9046 83.33 80.9246 83.33C79.9446 83.33 79.1646 83.64 78.5846 84.26C78.0046 84.88 77.7146 85.75 77.7146 86.87V95.96H72.5846V73.76H77.7146V81.47C78.2346 80.73 78.9446 80.14 79.8446 79.7C80.7446 79.26 81.7546 79.04 82.8746 79.04ZM108.579 87.32C108.579 87.8 108.549 88.3 108.489 88.82H96.8795C96.9595 89.86 97.2895 90.66 97.8695 91.22C98.4695 91.76 99.1995 92.03 100.059 92.03C101.339 92.03 102.229 91.49 102.729 90.41H108.189C107.909 91.51 107.399 92.5 106.659 93.38C105.939 94.26 105.029 94.95 103.929 95.45C102.829 95.95 101.599 96.2 100.239 96.2C98.5995 96.2 97.1395 95.85 95.8595 95.15C94.5795 94.45 93.5795 93.45 92.8595 92.15C92.1395 90.85 91.7795 89.33 91.7795 87.59C91.7795 85.85 92.1295 84.33 92.8295 83.03C93.5495 81.73 94.5495 80.73 95.8295 80.03C97.1095 79.33 98.5795 78.98 100.239 78.98C101.859 78.98 103.299 79.32 104.559 80C105.819 80.68 106.799 81.65 107.499 82.91C108.219 84.17 108.579 85.64 108.579 87.32ZM103.329 85.97C103.329 85.09 103.029 84.39 102.429 83.87C101.829 83.35 101.079 83.09 100.179 83.09C99.3195 83.09 98.5895 83.34 97.9895 83.84C97.4095 84.34 97.0495 85.05 96.9095 85.97H103.329ZM141.493 74.9V95.96H136.363V83.33L131.653 95.96H127.513L122.773 83.3V95.96H117.643V74.9H123.703L129.613 89.48L135.463 74.9H141.493ZM160.962 87.32C160.962 87.8 160.932 88.3 160.872 88.82H149.262C149.342 89.86 149.672 90.66 150.252 91.22C150.852 91.76 151.582 92.03 152.442 92.03C153.722 92.03 154.612 91.49 155.112 90.41H160.572C160.292 91.51 159.782 92.5 159.042 93.38C158.322 94.26 157.412 94.95 156.312 95.45C155.212 95.95 153.982 96.2 152.622 96.2C150.982 96.2 149.522 95.85 148.242 95.15C146.962 94.45 145.962 93.45 145.242 92.15C144.522 90.85 144.162 89.33 144.162 87.59C144.162 85.85 144.512 84.33 145.212 83.03C145.932 81.73 146.932 80.73 148.212 80.03C149.492 79.33 150.962 78.98 152.622 78.98C154.242 78.98 155.682 79.32 156.942 80C158.202 80.68 159.182 81.65 159.882 82.91C160.602 84.17 160.962 85.64 160.962 87.32ZM155.712 85.97C155.712 85.09 155.412 84.39 154.812 83.87C154.212 83.35 153.462 83.09 152.562 83.09C151.702 83.09 150.972 83.34 150.372 83.84C149.792 84.34 149.432 85.05 149.292 85.97H155.712ZM162.649 87.56C162.649 85.84 162.969 84.33 163.609 83.03C164.269 81.73 165.159 80.73 166.279 80.03C167.399 79.33 168.649 78.98 170.029 78.98C171.129 78.98 172.129 79.21 173.029 79.67C173.949 80.13 174.669 80.75 175.189 81.53V73.76H180.319V95.96H175.189V93.56C174.709 94.36 174.019 95 173.119 95.48C172.239 95.96 171.209 96.2 170.029 96.2C168.649 96.2 167.399 95.85 166.279 95.15C165.159 94.43 164.269 93.42 163.609 92.12C162.969 90.8 162.649 89.28 162.649 87.56ZM175.189 87.59C175.189 86.31 174.829 85.3 174.109 84.56C173.409 83.82 172.549 83.45 171.529 83.45C170.509 83.45 169.639 83.82 168.919 84.56C168.219 85.28 167.869 86.28 167.869 87.56C167.869 88.84 168.219 89.86 168.919 90.62C169.639 91.36 170.509 91.73 171.529 91.73C172.549 91.73 173.409 91.36 174.109 90.62C174.829 89.88 175.189 88.87 175.189 87.59ZM186.61 77.48C185.71 77.48 184.97 77.22 184.39 76.7C183.83 76.16 183.55 75.5 183.55 74.72C183.55 73.92 183.83 73.26 184.39 72.74C184.97 72.2 185.71 71.93 186.61 71.93C187.49 71.93 188.21 72.2 188.77 72.74C189.35 73.26 189.64 73.92 189.64 74.72C189.64 75.5 189.35 76.16 188.77 76.7C188.21 77.22 187.49 77.48 186.61 77.48ZM189.16 79.22V95.96H184.03V79.22H189.16ZM191.858 87.59C191.858 85.85 192.208 84.33 192.908 83.03C193.628 81.73 194.618 80.73 195.878 80.03C197.158 79.33 198.618 78.98 200.258 78.98C202.358 78.98 204.108 79.53 205.508 80.63C206.928 81.73 207.858 83.28 208.298 85.28H202.838C202.378 84 201.488 83.36 200.168 83.36C199.228 83.36 198.478 83.73 197.918 84.47C197.358 85.19 197.078 86.23 197.078 87.59C197.078 88.95 197.358 90 197.918 90.74C198.478 91.46 199.228 91.82 200.168 91.82C201.488 91.82 202.378 91.18 202.838 89.9H208.298C207.858 91.86 206.928 93.4 205.508 94.52C204.088 95.64 202.338 96.2 200.258 96.2C198.618 96.2 197.158 95.85 195.878 95.15C194.618 94.45 193.628 93.45 192.908 92.15C192.208 90.85 191.858 89.33 191.858 87.59ZM210.022 87.56C210.022 85.84 210.342 84.33 210.982 83.03C211.642 81.73 212.532 80.73 213.652 80.03C214.772 79.33 216.022 78.98 217.402 78.98C218.582 78.98 219.612 79.22 220.492 79.7C221.392 80.18 222.082 80.81 222.562 81.59V79.22H227.692V95.96H222.562V93.59C222.062 94.37 221.362 95 220.462 95.48C219.582 95.96 218.552 96.2 217.372 96.2C216.012 96.2 214.772 95.85 213.652 95.15C212.532 94.43 211.642 93.42 210.982 92.12C210.342 90.8 210.022 89.28 210.022 87.56ZM222.562 87.59C222.562 86.31 222.202 85.3 221.482 84.56C220.782 83.82 219.922 83.45 218.902 83.45C217.882 83.45 217.012 83.82 216.292 84.56C215.592 85.28 215.242 86.28 215.242 87.56C215.242 88.84 215.592 89.86 216.292 90.62C217.012 91.36 217.882 91.73 218.902 91.73C219.922 91.73 220.782 91.36 221.482 90.62C222.202 89.88 222.562 88.87 222.562 87.59ZM236.533 73.76V95.96H231.403V73.76H236.533ZM260.318 74.9V79.01H251.738V83.45H258.158V87.44H251.738V95.96H246.608V74.9H260.318ZM261.994 87.56C261.994 85.84 262.314 84.33 262.954 83.03C263.614 81.73 264.504 80.73 265.624 80.03C266.744 79.33 267.994 78.98 269.374 78.98C270.554 78.98 271.584 79.22 272.464 79.7C273.364 80.18 274.054 80.81 274.534 81.59V79.22H279.664V95.96H274.534V93.59C274.034 94.37 273.334 95 272.434 95.48C271.554 95.96 270.524 96.2 269.344 96.2C267.984 96.2 266.744 95.85 265.624 95.15C264.504 94.43 263.614 93.42 262.954 92.12C262.314 90.8 261.994 89.28 261.994 87.56ZM274.534 87.59C274.534 86.31 274.174 85.3 273.454 84.56C272.754 83.82 271.894 83.45 270.874 83.45C269.854 83.45 268.984 83.82 268.264 84.56C267.564 85.28 267.214 86.28 267.214 87.56C267.214 88.84 267.564 89.86 268.264 90.62C268.984 91.36 269.854 91.73 270.874 91.73C271.894 91.73 272.754 91.36 273.454 90.62C274.174 89.88 274.534 88.87 274.534 87.59ZM288.506 82.01C289.106 81.09 289.856 80.37 290.756 79.85C291.656 79.31 292.656 79.04 293.756 79.04V84.47H292.346C291.066 84.47 290.106 84.75 289.466 85.31C288.826 85.85 288.506 86.81 288.506 88.19V95.96H283.376V79.22H288.506V82.01ZM317.568 79.04C319.648 79.04 321.298 79.67 322.518 80.93C323.758 82.19 324.378 83.94 324.378 86.18V95.96H319.278V86.87C319.278 85.79 318.988 84.96 318.408 84.38C317.848 83.78 317.068 83.48 316.068 83.48C315.068 83.48 314.278 83.78 313.698 84.38C313.138 84.96 312.858 85.79 312.858 86.87V95.96H307.758V86.87C307.758 85.79 307.468 84.96 306.888 84.38C306.328 83.78 305.548 83.48 304.548 83.48C303.548 83.48 302.758 83.78 302.178 84.38C301.618 84.96 301.338 85.79 301.338 86.87V95.96H296.208V79.22H301.338V81.32C301.858 80.62 302.538 80.07 303.378 79.67C304.218 79.25 305.168 79.04 306.228 79.04C307.488 79.04 308.608 79.31 309.588 79.85C310.588 80.39 311.368 81.16 311.928 82.16C312.508 81.24 313.298 80.49 314.298 79.91C315.298 79.33 316.388 79.04 317.568 79.04Z" fill="black"/>
<path d="M58.5 35.96C58.5 54.6868 45.5315 69.46 30 69.46C14.4685 69.46 1.5 54.6868 1.5 35.96C1.5 17.2332 14.4685 2.45996 30 2.45996C45.5315 2.45996 58.5 17.2332 58.5 35.96Z" fill="white" stroke="black" stroke-width="3"/>
<path d="M49 35.96C49 49.4346 40.2967 59.96 30 59.96C19.7033 59.96 11 49.4346 11 35.96C11 22.4854 19.7033 11.96 30 11.96C40.2967 11.96 49 22.4854 49 35.96Z" fill="white" stroke="black" stroke-width="2"/>
<rect x="29" y="11.96" width="3" height="48" fill="black"/>
<rect x="10.9062" y="38.5029" width="3" height="38.73" transform="rotate(-90 10.9062 38.5029)" fill="black"/>
<path d="M30.0687 120.744L11.5001 61.9605L30.0687 70.4602L49 61.937L30.0687 120.744Z" fill="black"/>
</svg>
